<svg width="817.5" height="189.053" viewBox="0 0 817.5 169.053" xmlns="http://www.w3.org/2000/svg">
	<g id="svgGroup" stroke-linecap="round" fill-rule="evenodd" stroke-dasharray="400 400" font-size="9pt" stroke="#ff0000" stroke-width="0.5mm" fill="none" style="stroke:#ff0000;stroke-width:0.5mm;fill:none">
		<path d="M 59.85 92.55 L 56.1 95.4 L 37.8 95.4 A 93.825 93.825 0 0 1 33.048 105.76 A 78.172 78.172 0 0 1 29.775 111.3 A 48.968 48.968 0 0 1 26.27 116.082 Q 24.313 118.419 22.267 120.152 A 25.245 25.245 0 0 1 20.1 121.8 L 20.1 122.1 A 10.42 10.42 0 0 0 21.895 122.746 A 7.912 7.912 0 0 0 23.85 123 A 12.209 12.209 0 0 0 28.125 122.25 A 62.176 62.176 0 0 1 28.149 122.242 Q 30.111 121.516 30.581 121.501 A 0.602 0.602 0 0 1 30.6 121.5 Q 31.629 121.5 31.65 122.22 A 1.04 1.04 0 0 1 31.65 122.25 A 1.802 1.802 0 0 1 31.527 122.847 Q 31.206 123.737 30.052 125.224 A 28.187 28.187 0 0 1 29.55 125.85 A 19.865 19.865 0 0 1 26.635 128.277 A 16.427 16.427 0 0 1 24.45 129.525 A 14.616 14.616 0 0 1 22.145 130.397 Q 20.7 130.8 19.35 130.8 Q 17.4 130.8 13.8 129.6 Q 10.2 128.4 8.4 128.4 A 9.172 9.172 0 0 0 5.415 128.917 A 11.818 11.818 0 0 0 3.825 129.6 Q 1.5 130.8 0.75 130.8 A 1.08 1.08 0 0 1 0.453 130.763 Q 0.12 130.668 0.032 130.328 A 1.105 1.105 0 0 1 0 130.05 A 4.686 4.686 0 0 1 0.169 128.851 Q 0.318 128.288 0.6 127.667 A 11.841 11.841 0 0 1 1.2 126.525 A 8.74 8.74 0 0 1 2.158 125.192 Q 3.016 124.22 4.05 123.75 A 7.44 7.44 0 0 1 4.931 123.375 A 5.643 5.643 0 0 1 5.775 123.15 Q 6.6 123 7.8 122.55 A 21.385 21.385 0 0 0 14.865 118.014 A 28.512 28.512 0 0 0 18.075 114.375 A 62.263 62.263 0 0 0 24.371 103.868 A 71.653 71.653 0 0 0 25.65 101.025 A 216.475 216.475 0 0 0 28.03 95.156 Q 30.256 89.449 32.85 82.05 Q 37.01 70.377 40.149 62.604 A 250.521 250.521 0 0 1 40.875 60.825 Q 44.25 52.65 48.9 45.675 A 42.634 42.634 0 0 1 53.888 39.469 A 33.429 33.429 0 0 1 59.55 34.8 L 59.55 34.65 Q 57.835 34.405 56.82 34.16 A 10.543 10.543 0 0 1 56.4 34.05 A 6.323 6.323 0 0 0 56.088 33.983 Q 55.224 33.816 52.725 33.45 Q 50.659 33.148 47.814 33.049 A 85.292 85.292 0 0 0 44.85 33 A 36.298 36.298 0 0 0 38.923 33.458 Q 34.611 34.172 31.275 36 Q 26.527 38.602 22.287 44.023 A 47.257 47.257 0 0 0 21 45.75 Q 19.763 47.729 18.934 48.077 A 0.866 0.866 0 0 1 18.6 48.15 Q 17.817 48.15 17.715 47.242 A 2.625 2.625 0 0 1 17.7 46.95 L 17.85 45.45 Q 20.1 36.3 28.125 30.75 A 31.346 31.346 0 0 1 44.098 25.293 A 39.033 39.033 0 0 1 46.8 25.2 A 37.409 37.409 0 0 1 49.591 25.319 Q 52.345 25.527 56.161 26.102 A 176.29 176.29 0 0 1 59.85 26.7 A 171.571 171.571 0 0 0 63.609 27.357 Q 68.756 28.191 71.343 28.2 A 16.139 16.139 0 0 0 71.4 28.2 Q 75.3 28.2 79.65 26.7 L 79.65 26.85 Q 76.022 32.896 73.839 45.02 A 131.605 131.605 0 0 0 73.35 47.925 Q 71.671 58.613 71.245 73.1 A 350.691 350.691 0 0 0 71.1 83.4 Q 71.1 102.223 71.774 110.486 A 65.701 65.701 0 0 0 72 112.8 A 37.349 37.349 0 0 0 72.222 115.075 Q 72.509 117.263 73.027 118.706 A 8.701 8.701 0 0 0 73.275 119.325 A 3.994 3.994 0 0 0 74.09 120.54 Q 74.882 121.328 76.097 121.469 A 4.778 4.778 0 0 0 76.65 121.5 A 6.134 6.134 0 0 0 79.307 120.884 A 7.247 7.247 0 0 0 79.575 120.75 Q 81 120 83.4 118.5 Q 86.208 116.579 86.977 116.551 A 0.614 0.614 0 0 1 87 116.55 Q 87.867 116.55 87.899 117.107 A 0.758 0.758 0 0 1 87.9 117.15 A 4.034 4.034 0 0 1 87.774 118.114 Q 87.661 118.568 87.45 119.072 A 10.1 10.1 0 0 1 87 120 Q 84.15 125.1 79.275 128.7 Q 74.4 132.3 69.9 132.3 A 7.272 7.272 0 0 1 63.32 128.525 Q 61.846 126.095 61.2 122.1 Q 59.85 113.85 59.85 92.55 Z M 40.5 86.4 L 60 86.4 Q 60.3 72.6 61.95 59.025 Q 63.059 49.905 64.574 43.052 A 88.273 88.273 0 0 1 66.15 36.9 L 66 36.9 A 15.269 15.269 0 0 0 62.067 39.619 Q 58.854 42.595 55.759 47.983 A 64.494 64.494 0 0 0 54.675 49.95 Q 50.122 58.557 44.481 74.527 A 457.296 457.296 0 0 0 42.15 81.3 L 40.5 86.4 Z" id="0" vector-effect="non-scaling-stroke"/>
		<path d="M 114.45 86.55 L 114.75 86.55 Q 127.861 61.57 139.195 59.574 A 11.253 11.253 0 0 1 141.15 59.4 A 9.226 9.226 0 0 1 143.106 59.595 Q 144.88 59.98 146.025 61.125 Q 147.75 62.85 147.75 66 A 16.682 16.682 0 0 1 147.022 70.795 A 20.519 20.519 0 0 1 146.325 72.75 A 23.374 23.374 0 0 1 144.857 75.721 A 16.961 16.961 0 0 1 142.875 78.45 A 11.701 11.701 0 0 1 141.886 79.435 Q 140.765 80.414 139.77 80.636 A 2.619 2.619 0 0 1 139.2 80.7 Q 138.15 80.7 138.45 79.35 A 29.745 29.745 0 0 0 138.678 78.183 Q 138.9 76.894 138.9 76.05 Q 138.9 73.219 136.487 72.614 A 6.139 6.139 0 0 0 135 72.45 Q 131.463 72.45 127.925 75.575 A 23.423 23.423 0 0 0 125.7 77.85 A 48.283 48.283 0 0 0 120.825 84.685 A 63.87 63.87 0 0 0 117.525 91.05 A 87.061 87.061 0 0 0 114.857 97.617 Q 113.409 101.672 112.65 105.3 Q 110.85 112.2 110.4 119.7 Q 110.1 122.55 107.775 125.475 Q 105.45 128.4 102.45 130.35 Q 100.144 131.849 98.636 132.196 A 3.751 3.751 0 0 1 97.8 132.3 A 2.617 2.617 0 0 1 97.398 132.271 Q 97.185 132.238 97.01 132.167 A 1.33 1.33 0 0 1 96.825 132.075 Q 96.61 131.946 96.519 131.793 A 0.465 0.465 0 0 1 96.45 131.55 Q 96.45 131.183 97.05 130.116 A 21.126 21.126 0 0 1 97.35 129.6 A 7.832 7.832 0 0 0 97.939 128.367 Q 98.412 127.13 98.7 125.4 A 367.497 367.497 0 0 0 99.263 122.382 A 278.303 278.303 0 0 0 99.75 119.625 Q 100.2 117 100.65 114.75 Q 104.103 95.83 105.457 87.4 A 302.947 302.947 0 0 0 105.675 86.025 Q 106.917 78.065 106.807 74.301 A 18.419 18.419 0 0 0 106.8 74.1 Q 106.8 72.15 106.5 71.25 A 1.367 1.367 0 0 0 106.214 70.747 Q 105.847 70.35 105.15 70.35 Q 103.8 70.35 101.701 72.599 A 3.523 3.523 0 0 0 101.7 72.6 A 29.139 29.139 0 0 0 99.073 75.876 A 35.448 35.448 0 0 0 97.8 77.85 Q 97.284 78.778 96.84 79.529 A 44.635 44.635 0 0 1 96.45 80.175 A 25.901 25.901 0 0 1 96.164 80.63 Q 95.856 81.108 95.62 81.418 A 5.374 5.374 0 0 1 95.475 81.6 A 1.574 1.574 0 0 1 95.233 81.838 Q 95.062 81.971 94.877 82.02 A 0.869 0.869 0 0 1 94.65 82.05 A 1.264 1.264 0 0 1 94.273 81.997 A 0.956 0.956 0 0 1 93.75 81.6 Q 93.5 81.225 93.458 80.642 A 3.394 3.394 0 0 1 93.45 80.4 Q 93.45 78.104 95.543 74.348 A 39.922 39.922 0 0 1 96.675 72.45 Q 99.9 67.35 104.325 63.375 A 24.349 24.349 0 0 1 106.607 61.544 Q 109.666 59.4 112.2 59.4 Q 115.05 59.4 116.175 61.65 A 8.177 8.177 0 0 1 116.756 63.258 Q 117.179 64.894 117.273 67.275 A 36.118 36.118 0 0 1 117.3 68.7 A 41.969 41.969 0 0 1 117.022 73.279 Q 116.496 78.037 114.975 84.418 A 155.608 155.608 0 0 1 114.45 86.55 Z" id="1" vector-effect="non-scaling-stroke"/>
		<path d="M 169.741 132.253 A 4.221 4.221 0 0 0 170.4 132.3 A 9.546 9.546 0 0 0 174.505 131.265 Q 177.975 129.607 182.035 125.296 A 65.447 65.447 0 0 0 185.85 120.825 A 111.662 111.662 0 0 0 192.791 110.883 A 136.151 136.151 0 0 0 201.6 94.125 A 134.141 134.141 0 0 0 202.179 92.801 Q 208.35 78.466 208.35 69 A 24.247 24.247 0 0 0 208.271 66.999 Q 208.156 65.61 207.873 64.436 A 10.804 10.804 0 0 0 207 62.025 Q 206.172 60.415 205.288 59.793 A 1.958 1.958 0 0 0 204.15 59.4 Q 202.2 59.4 198.6 63.75 A 42.953 42.953 0 0 0 198.368 64.033 Q 195.925 67.037 195.254 69.007 A 4.217 4.217 0 0 0 195 70.35 A 1.915 1.915 0 0 0 195.083 70.875 Q 195.315 71.683 196.2 72.9 A 18.033 18.033 0 0 1 197.026 74.138 A 14.661 14.661 0 0 1 198.075 76.2 Q 198.521 77.29 198.672 78.836 A 17.639 17.639 0 0 1 198.75 80.55 A 25.952 25.952 0 0 1 198.427 84.501 Q 197.706 89.173 195.375 95.025 A 82.526 82.526 0 0 1 192.447 101.565 A 65.063 65.063 0 0 1 187.5 109.875 A 48.118 48.118 0 0 1 186.883 110.73 Q 184.035 114.582 181.884 115.746 A 3.677 3.677 0 0 1 180.15 116.25 Q 179.174 116.25 178.893 114.563 A 8.205 8.205 0 0 1 178.8 113.7 A 8.317 8.317 0 0 1 178.78 113.553 Q 178.665 112.623 178.507 110.014 A 289.426 289.426 0 0 1 178.425 108.6 Q 178.256 105.563 177.792 99.235 A 1916.067 1916.067 0 0 0 177.45 94.65 A 203.933 203.933 0 0 0 176.493 84.96 Q 175.93 80.438 175.197 76.562 A 84.619 84.619 0 0 0 173.475 69.15 Q 170.7 59.4 163.8 59.4 A 8.337 8.337 0 0 0 159.142 60.816 A 11.767 11.767 0 0 0 156.825 62.85 A 22.914 22.914 0 0 0 154.789 65.504 A 26.328 26.328 0 0 0 152.025 71.1 A 37.809 37.809 0 0 0 151.472 72.755 Q 150.922 74.54 150.63 76.168 A 19.768 19.768 0 0 0 150.3 79.65 A 7.436 7.436 0 0 0 150.308 80.007 Q 150.347 80.808 150.566 81.27 A 0.982 0.982 0 0 0 151.5 81.9 A 1.142 1.142 0 0 0 152.32 81.537 Q 152.926 80.938 153.3 79.35 A 152.247 152.247 0 0 1 153.402 79.025 Q 154.831 74.489 155.7 72.75 A 4.178 4.178 0 0 1 155.949 72.317 Q 156.851 70.95 158.55 70.95 A 2.533 2.533 0 0 1 158.786 70.961 Q 161.478 71.212 163.275 77.25 Q 164.681 81.975 165.792 91.847 A 289.944 289.944 0 0 1 166.5 99 Q 167.55 112.65 167.55 123.3 A 79.621 79.621 0 0 0 167.562 124.727 Q 167.603 126.978 167.775 128.7 A 20.843 20.843 0 0 0 167.809 129.018 Q 167.976 130.465 168.281 131.189 A 1.933 1.933 0 0 0 168.525 131.625 A 1.522 1.522 0 0 0 169.14 132.086 Q 169.404 132.199 169.741 132.253 Z" id="2" vector-effect="non-scaling-stroke"/>
		<path d="M 224.25 117.45 L 231.45 77.4 Q 232.05 73.5 232.05 72.6 A 5.607 5.607 0 0 0 232.003 71.836 Q 231.797 70.35 230.7 70.35 A 2.996 2.996 0 0 0 229.502 70.629 Q 228.486 71.073 227.282 72.229 A 17.872 17.872 0 0 0 226.35 73.2 A 21.72 21.72 0 0 0 224.712 75.304 Q 222.863 77.972 220.8 82.2 A 6.447 6.447 0 0 1 220.544 82.857 Q 220.017 84 219.3 84 A 0.746 0.746 0 0 1 218.586 83.555 Q 218.4 83.183 218.4 82.5 A 10.772 10.772 0 0 1 218.747 79.92 Q 219.358 77.457 221.044 74.32 A 43.6 43.6 0 0 1 221.625 73.275 Q 224.85 67.65 229.575 63.525 A 23.482 23.482 0 0 1 232.303 61.451 Q 233.774 60.506 235.174 59.996 A 9.259 9.259 0 0 1 238.35 59.4 Q 243 59.4 243 66 A 29.111 29.111 0 0 1 242.912 68.159 Q 242.719 70.744 242.1 74.25 L 234.3 117.6 L 234 119.55 A 2.945 2.945 0 0 0 234.058 120.163 Q 234.251 121.065 235.085 121.183 A 1.897 1.897 0 0 0 235.35 121.2 A 2.932 2.932 0 0 0 236.548 120.915 Q 237.561 120.46 238.76 119.28 A 18.109 18.109 0 0 0 239.7 118.275 A 24.277 24.277 0 0 0 241.338 116.147 Q 243.188 113.475 245.25 109.35 A 7.4 7.4 0 0 1 245.555 108.748 Q 246.111 107.774 246.667 107.705 A 0.686 0.686 0 0 1 246.75 107.7 A 0.695 0.695 0 0 1 247.385 108.108 Q 247.65 108.591 247.65 109.65 A 9.949 9.949 0 0 1 247.319 112.068 Q 246.617 114.854 244.425 118.575 Q 241.2 124.05 236.55 128.175 A 30.847 30.847 0 0 1 236.479 128.238 Q 232.051 132.142 228.441 132.294 A 6.919 6.919 0 0 1 228.15 132.3 A 4.626 4.626 0 0 1 225.776 131.724 Q 223.914 130.635 223.481 127.492 A 15.395 15.395 0 0 1 223.35 125.4 Q 223.35 122.435 224.015 118.695 A 58.872 58.872 0 0 1 224.25 117.45 Z M 235.65 49.35 L 237.45 38.85 A 15.573 15.573 0 0 1 238.212 35.985 Q 238.843 34.317 239.839 33.079 A 8.845 8.845 0 0 1 240.675 32.175 Q 243.15 29.85 246.9 29.85 L 247.5 29.85 A 4.181 4.181 0 0 1 247.862 29.865 Q 248.449 29.916 248.625 30.15 Q 248.821 30.412 248.732 31.13 A 5.332 5.332 0 0 1 248.7 31.35 L 247.05 41.7 A 13.667 13.667 0 0 1 246.241 44.828 A 10.049 10.049 0 0 1 243.9 48.375 A 8.667 8.667 0 0 1 237.746 50.849 A 11.255 11.255 0 0 1 237.6 50.85 L 237 50.85 A 2.167 2.167 0 0 1 236.473 50.792 Q 235.53 50.555 235.65 49.35 Z" id="3" vector-effect="non-scaling-stroke"/>
		<path d="M 302.4 59.4 L 303.9 59.4 Q 307.98 42.339 311.652 32.207 A 95.698 95.698 0 0 1 313.2 28.2 A 55.447 55.447 0 0 1 318.903 17.659 A 45.583 45.583 0 0 1 324.75 10.8 A 48.432 48.432 0 0 1 327.803 8.154 Q 329.316 6.956 330.728 6.081 A 19.905 19.905 0 0 1 333.45 4.65 A 33.79 33.79 0 0 1 336.166 3.648 Q 339.459 2.578 344.1 1.65 A 56.861 56.861 0 0 0 345.492 1.355 Q 347.419 0.919 348.375 0.525 Q 349.65 0 350.1 0 A 1.307 1.307 0 0 1 350.541 0.068 Q 351.118 0.275 351.148 1.106 A 2.582 2.582 0 0 1 351.15 1.2 A 3.331 3.331 0 0 1 350.79 2.643 Q 350.261 3.745 348.954 4.97 A 16.454 16.454 0 0 1 348.3 5.55 A 12.857 12.857 0 0 1 347.295 6.372 Q 346.785 6.746 346.303 7.003 A 5.626 5.626 0 0 1 345.525 7.35 A 12.576 12.576 0 0 1 343.884 7.812 A 10.663 10.663 0 0 1 343.05 7.95 Q 342.07 8.073 341.49 8.195 A 6.73 6.73 0 0 0 341.25 8.25 A 19.449 19.449 0 0 0 329.438 14.452 A 25.845 25.845 0 0 0 328.05 16.05 A 32.037 32.037 0 0 0 325.207 20.512 Q 322.871 24.88 320.925 31.05 A 147.601 147.601 0 0 0 319.252 36.835 Q 316.538 46.875 312.6 65.1 A 4496.536 4496.536 0 0 0 309.607 79.664 Q 304.359 105.43 303.102 113.588 A 69.08 69.08 0 0 0 302.85 115.35 A 13.187 13.187 0 0 0 302.759 116.201 Q 302.722 116.677 302.708 117.222 A 26.944 26.944 0 0 0 302.7 117.9 Q 302.7 120.038 303.518 120.791 A 1.606 1.606 0 0 0 304.65 121.2 A 3.923 3.923 0 0 0 306.779 120.538 Q 308.036 119.739 309.225 117.975 A 38.029 38.029 0 0 0 310.817 115.376 Q 311.54 114.093 312.286 112.586 A 86.575 86.575 0 0 0 313.8 109.35 Q 314.7 107.7 315.45 107.7 A 0.739 0.739 0 0 1 316.156 108.173 Q 316.319 108.518 316.345 109.117 A 5.409 5.409 0 0 1 316.35 109.35 L 316.05 111.9 A 28.907 28.907 0 0 1 312.02 121.283 A 32.871 32.871 0 0 1 311.625 121.875 A 33.613 33.613 0 0 1 307.987 126.366 A 26.512 26.512 0 0 1 304.425 129.45 A 20.108 20.108 0 0 1 302.007 130.953 Q 300.672 131.648 299.423 131.984 A 8.728 8.728 0 0 1 297.15 132.3 Q 292.35 132.3 292.35 124.35 Q 292.35 121.35 292.95 117.15 L 295.5 103.95 L 295.35 103.95 Q 289.8 113.55 281.25 122.925 A 50.41 50.41 0 0 1 277.088 127.027 Q 272.494 131.015 268.479 131.987 A 10.724 10.724 0 0 1 265.95 132.3 A 6.2 6.2 0 0 1 260.095 128.392 Q 258.641 125.417 258.365 120.178 A 49.087 49.087 0 0 1 258.3 117.6 A 65.411 65.411 0 0 1 262.572 94.619 A 77.018 77.018 0 0 1 264.3 90.375 A 65.618 65.618 0 0 1 272.906 75.974 A 56.711 56.711 0 0 1 280.5 68.1 A 39.066 39.066 0 0 1 289.373 62.308 A 30.592 30.592 0 0 1 302.4 59.4 Z M 299.4 80.55 L 301.8 70.95 A 18.049 18.049 0 0 0 296.669 68.545 A 15.877 15.877 0 0 0 292.35 67.95 A 11.576 11.576 0 0 0 285.632 70.171 Q 282.988 72.011 280.575 75.375 A 51.029 51.029 0 0 0 275.32 84.725 A 67.872 67.872 0 0 0 272.25 93.375 A 87.689 87.689 0 0 0 270.199 102.241 Q 269.25 107.691 269.25 112.5 A 27.41 27.41 0 0 0 269.315 114.461 Q 269.482 116.778 270.075 118.125 Q 270.9 120 273 120 A 6.933 6.933 0 0 0 275.966 119.264 Q 278.278 118.169 280.909 115.444 A 37.962 37.962 0 0 0 282.675 113.475 Q 288.15 106.95 292.875 97.5 A 108.431 108.431 0 0 0 296.008 90.687 Q 297.496 87.111 298.492 83.863 A 55.442 55.442 0 0 0 299.4 80.55 Z" id="4" vector-effect="non-scaling-stroke"/>
		<path d="M 340.8 28.5 L 341.1 25.2 A 1.567 1.567 0 0 1 341.63 24.215 Q 342.316 23.576 343.875 23.175 A 21.67 21.67 0 0 1 348.024 22.542 A 25.471 25.471 0 0 1 349.5 22.5 A 15.118 15.118 0 0 1 349.916 22.506 Q 350.728 22.528 350.919 22.646 A 0.233 0.233 0 0 1 350.925 22.65 Q 351.135 22.79 351.018 23.716 A 8.433 8.433 0 0 1 351 23.85 L 350.4 28.5 A 243.424 243.424 0 0 1 350.02 31.664 Q 349.448 36.171 348.835 39.473 A 87.115 87.115 0 0 1 348.825 39.525 A 48.282 48.282 0 0 1 347.039 46.369 A 43.405 43.405 0 0 1 346.5 47.85 Q 344.038 55.442 340.453 57.842 A 6.27 6.27 0 0 1 336.9 58.95 Q 335.908 58.95 335.519 58.816 A 0.94 0.94 0 0 1 335.475 58.8 Q 335.16 58.674 335.11 58.231 A 1.601 1.601 0 0 1 335.1 58.05 Q 335.1 57.355 335.745 55.693 A 27.233 27.233 0 0 1 335.85 55.425 Q 336.495 53.814 336.918 52.48 A 28.983 28.983 0 0 0 337.05 52.05 A 52.743 52.743 0 0 0 338.5 46.487 A 67.397 67.397 0 0 0 339.3 41.7 Q 339.945 36.802 340.589 30.574 A 603.089 603.089 0 0 0 340.8 28.5 Z" id="5" vector-effect="non-scaling-stroke"/>
		<path d="M 365.85 100.5 L 362.7 96 A 85.405 85.405 0 0 1 360.674 93.006 Q 358.658 89.875 357.675 87.6 Q 356.25 84.3 356.25 80.55 Q 356.25 74.55 359.475 69.75 Q 362.7 64.95 367.95 62.175 Q 373.2 59.4 378.9 59.4 A 23.486 23.486 0 0 1 382.707 59.681 Q 389.441 60.793 389.691 66.319 A 9.572 9.572 0 0 1 389.7 66.75 A 8.111 8.111 0 0 1 388.976 70.041 A 11.59 11.59 0 0 1 387.75 72.15 A 10.334 10.334 0 0 1 387.336 72.807 Q 386.548 73.95 385.95 73.95 A 1.03 1.03 0 0 1 385.309 73.708 Q 384.775 73.289 384.3 72.15 Q 382.711 69.406 380.497 68.122 A 8.275 8.275 0 0 0 380.325 68.025 A 9.588 9.588 0 0 0 377.877 67.113 Q 376.758 66.852 375.451 66.779 A 18.774 18.774 0 0 0 374.4 66.75 Q 370.2 66.75 367.65 69 A 7.225 7.225 0 0 0 365.111 74.261 A 9.034 9.034 0 0 0 365.1 74.7 Q 365.1 76.228 365.882 78.077 A 15.345 15.345 0 0 0 366.375 79.125 A 27.38 27.38 0 0 0 367.158 80.527 Q 368.55 82.875 371.25 86.7 L 374.4 91.05 A 73.666 73.666 0 0 1 376.776 94.365 Q 379.04 97.73 380.176 100.398 A 21.557 21.557 0 0 1 380.25 100.575 Q 381.9 104.55 381.9 108.9 A 18.298 18.298 0 0 1 380.277 116.319 A 24.563 24.563 0 0 1 378.3 119.925 A 27.848 27.848 0 0 1 369.073 128.633 A 32.224 32.224 0 0 1 368.7 128.85 Q 362.7 132.3 355.95 132.3 A 14.133 14.133 0 0 1 351.793 131.712 A 11.806 11.806 0 0 1 348 129.75 Q 344.7 127.2 343.65 123 A 1.934 1.934 0 0 1 343.599 122.662 Q 343.532 121.677 344.259 119.974 A 18.177 18.177 0 0 1 344.625 119.175 A 24.585 24.585 0 0 1 346.711 115.682 A 29.778 29.778 0 0 1 348 114 A 9.094 9.094 0 0 1 348.504 113.474 Q 349.364 112.65 349.95 112.65 A 0.927 0.927 0 0 1 350.611 112.936 Q 350.92 113.236 351.15 113.85 Q 353.569 119.496 356.986 122.106 A 10.619 10.619 0 0 0 363.6 124.35 A 10.691 10.691 0 0 0 366.288 124.031 A 7.542 7.542 0 0 0 369.975 121.875 A 8.301 8.301 0 0 0 372 117.996 A 12.292 12.292 0 0 0 372.3 115.2 A 13.615 13.615 0 0 0 371.67 111.316 Q 370.284 106.688 365.85 100.5 Z" id="6" vector-effect="non-scaling-stroke"/>
		<path d="M 496.05 130.95 L 498.15 118.65 Q 488.007 128.67 477.048 130.427 A 29.629 29.629 0 0 1 472.35 130.8 A 22.811 22.811 0 0 1 462.822 128.863 Q 458.075 126.71 454.543 122.166 A 28.174 28.174 0 0 1 453.825 121.2 A 32.179 32.179 0 0 1 449.438 112.091 Q 448.086 107.768 447.484 102.506 A 79.817 79.817 0 0 1 447 93.45 A 84.041 84.041 0 0 1 449.286 73.481 A 69.33 69.33 0 0 1 455.1 57.9 A 72.985 72.985 0 0 1 464.306 44.063 A 58.003 58.003 0 0 1 475.725 33.75 A 54.235 54.235 0 0 1 486.084 28.136 A 39.021 39.021 0 0 1 500.7 25.2 A 33.559 33.559 0 0 1 507.924 25.945 A 26.326 26.326 0 0 1 514.425 28.275 A 12.664 12.664 0 0 1 517.605 30.553 Q 520.339 33.303 520.35 37.468 A 12.707 12.707 0 0 1 520.35 37.5 Q 520.35 38.85 519.6 41.4 A 17.749 17.749 0 0 1 518.793 43.571 Q 518.333 44.608 517.709 45.727 A 35.108 35.108 0 0 1 516.9 47.1 A 22.096 22.096 0 0 1 516.418 47.722 Q 515.94 48.313 515.565 48.673 A 4.825 4.825 0 0 1 515.4 48.825 A 2.104 2.104 0 0 1 514.24 49.33 A 2.811 2.811 0 0 1 513.9 49.35 A 1.392 1.392 0 0 1 513.134 49.139 Q 512.881 48.978 512.69 48.692 A 2.215 2.215 0 0 1 512.55 48.45 A 5.794 5.794 0 0 1 512.227 47.65 Q 512.092 47.233 511.988 46.741 A 12.201 12.201 0 0 1 511.875 46.125 A 60.93 60.93 0 0 0 511.767 45.464 Q 511.629 44.647 511.524 44.2 A 6.997 6.997 0 0 0 511.5 44.1 Q 510.3 38.55 506.55 35.85 Q 503.625 33.745 498.876 33.281 A 29.129 29.129 0 0 0 496.05 33.15 A 25.896 25.896 0 0 0 476.765 41.256 A 32.371 32.371 0 0 0 475.725 42.375 A 55.525 55.525 0 0 0 466.184 57.71 A 69.146 69.146 0 0 0 463.575 65.025 A 96.734 96.734 0 0 0 460.07 82.29 A 83.017 83.017 0 0 0 459.6 91.05 A 63.609 63.609 0 0 0 460.063 98.992 Q 460.574 103.046 461.651 106.357 A 24.8 24.8 0 0 0 464.85 112.95 A 17.853 17.853 0 0 0 470.136 118.044 Q 473.699 120.225 478.289 120.429 A 21.594 21.594 0 0 0 479.25 120.45 A 21.571 21.571 0 0 0 488.712 118.216 A 26.797 26.797 0 0 0 490.95 117 A 21.705 21.705 0 0 0 496.565 112.016 Q 498.686 109.397 500.4 105.9 L 503.4 83.7 Q 503.7 80.1 507.525 76.425 A 19.439 19.439 0 0 1 509.635 74.649 Q 512.278 72.75 514.65 72.75 Q 516.45 72.75 516.45 73.65 A 0.498 0.498 0 0 1 516.396 73.826 Q 516.201 74.257 515.31 75.518 A 66.312 66.312 0 0 1 514.875 76.125 A 7.949 7.949 0 0 0 513.991 77.758 Q 513.114 79.884 512.7 83.4 L 508.05 121.65 Q 505.324 137.59 499.775 148.397 A 51.541 51.541 0 0 1 494.475 156.75 Q 484.8 169.05 470.25 169.05 A 32.607 32.607 0 0 1 463.631 168.408 A 25.022 25.022 0 0 1 457.125 166.125 A 16.104 16.104 0 0 1 454.664 164.574 Q 453.403 163.593 452.645 162.485 A 6.306 6.306 0 0 1 451.5 158.85 Q 451.5 156.957 452.574 154.736 A 16.709 16.709 0 0 1 453.225 153.525 A 23.399 23.399 0 0 1 455.845 149.893 A 20.331 20.331 0 0 1 457.2 148.5 A 16.049 16.049 0 0 1 458.205 147.631 Q 459.213 146.837 460.001 146.555 A 2.388 2.388 0 0 1 460.8 146.4 A 0.868 0.868 0 0 1 461.597 146.864 Q 461.702 147.043 461.767 147.291 A 3.16 3.16 0 0 1 461.85 147.75 A 42.864 42.864 0 0 0 463.539 151.82 Q 465.493 155.878 467.864 158.078 A 12.294 12.294 0 0 0 468.225 158.4 A 12.996 12.996 0 0 0 475.495 161.457 A 17.108 17.108 0 0 0 477.3 161.55 A 15.156 15.156 0 0 0 481.564 160.976 A 12.123 12.123 0 0 0 486.075 158.55 A 15.037 15.037 0 0 0 488.694 155.588 Q 490.526 152.921 491.925 148.95 A 61.955 61.955 0 0 0 493.327 144.357 Q 494.714 139.158 495.885 131.981 A 204.486 204.486 0 0 0 496.05 130.95 Z" id="8" vector-effect="non-scaling-stroke"/>
		<path d="M 535.65 117.45 L 542.85 77.4 Q 543.45 73.5 543.45 72.6 A 5.607 5.607 0 0 0 543.403 71.836 Q 543.197 70.35 542.1 70.35 A 2.996 2.996 0 0 0 540.902 70.629 Q 539.886 71.073 538.682 72.229 A 17.872 17.872 0 0 0 537.75 73.2 A 21.72 21.72 0 0 0 536.112 75.304 Q 534.263 77.972 532.2 82.2 A 6.447 6.447 0 0 1 531.944 82.857 Q 531.417 84 530.7 84 A 0.746 0.746 0 0 1 529.986 83.555 Q 529.8 83.183 529.8 82.5 A 10.772 10.772 0 0 1 530.147 79.92 Q 530.758 77.457 532.444 74.32 A 43.6 43.6 0 0 1 533.025 73.275 Q 536.25 67.65 540.975 63.525 A 23.482 23.482 0 0 1 543.703 61.451 Q 545.174 60.506 546.574 59.996 A 9.259 9.259 0 0 1 549.75 59.4 Q 554.4 59.4 554.4 66 A 29.111 29.111 0 0 1 554.312 68.159 Q 554.119 70.744 553.5 74.25 L 545.7 117.6 L 545.4 119.55 A 2.945 2.945 0 0 0 545.458 120.163 Q 545.651 121.065 546.485 121.183 A 1.897 1.897 0 0 0 546.75 121.2 A 2.932 2.932 0 0 0 547.948 120.915 Q 548.961 120.46 550.16 119.28 A 18.109 18.109 0 0 0 551.1 118.275 A 24.277 24.277 0 0 0 552.738 116.147 Q 554.588 113.475 556.65 109.35 A 7.4 7.4 0 0 1 556.955 108.748 Q 557.511 107.774 558.067 107.705 A 0.686 0.686 0 0 1 558.15 107.7 A 0.695 0.695 0 0 1 558.785 108.108 Q 559.05 108.591 559.05 109.65 A 9.949 9.949 0 0 1 558.719 112.068 Q 558.017 114.854 555.825 118.575 Q 552.6 124.05 547.95 128.175 A 30.847 30.847 0 0 1 547.879 128.238 Q 543.451 132.142 539.841 132.294 A 6.919 6.919 0 0 1 539.55 132.3 A 4.626 4.626 0 0 1 537.176 131.724 Q 535.314 130.635 534.881 127.492 A 15.395 15.395 0 0 1 534.75 125.4 Q 534.75 122.435 535.415 118.695 A 58.872 58.872 0 0 1 535.65 117.45 Z M 547.05 49.35 L 548.85 38.85 A 15.573 15.573 0 0 1 549.612 35.985 Q 550.243 34.317 551.239 33.079 A 8.845 8.845 0 0 1 552.075 32.175 Q 554.55 29.85 558.3 29.85 L 558.9 29.85 A 4.181 4.181 0 0 1 559.262 29.865 Q 559.849 29.916 560.025 30.15 Q 560.221 30.412 560.132 31.13 A 5.332 5.332 0 0 1 560.1 31.35 L 558.45 41.7 A 13.667 13.667 0 0 1 557.641 44.828 A 10.049 10.049 0 0 1 555.3 48.375 A 8.667 8.667 0 0 1 549.146 50.849 A 11.255 11.255 0 0 1 549 50.85 L 548.4 50.85 A 2.167 2.167 0 0 1 547.873 50.792 Q 546.93 50.555 547.05 49.35 Z" id="9" vector-effect="non-scaling-stroke"/>
		<path d="M 577.5 107.25 L 583.65 68.7 L 568.5 68.7 A 1.08 1.08 0 0 1 568.203 68.663 Q 567.87 68.568 567.782 68.228 A 1.105 1.105 0 0 1 567.75 67.95 Q 567.75 66.45 571.05 63.675 A 29.952 29.952 0 0 1 572.407 62.595 Q 574.405 61.104 575.552 60.925 A 1.933 1.933 0 0 1 575.85 60.9 L 584.85 60.9 L 586.35 51.6 A 13.923 13.923 0 0 1 589.497 44.378 A 18.331 18.331 0 0 1 591 42.75 Q 593.81 40.044 596.62 39.216 A 8.731 8.731 0 0 1 599.1 38.85 A 1.08 1.08 0 0 1 599.397 38.887 Q 599.73 38.983 599.818 39.323 A 1.105 1.105 0 0 1 599.85 39.6 A 1.376 1.376 0 0 1 599.803 39.907 Q 599.612 40.686 598.658 42.782 A 76.475 76.475 0 0 1 598.5 43.125 Q 597.15 46.05 596.55 49.35 L 594.75 60.9 L 609.45 60.9 A 1.296 1.296 0 0 1 609.806 60.945 Q 610.206 61.059 610.312 61.467 A 1.326 1.326 0 0 1 610.35 61.8 A 1.456 1.456 0 0 1 610.156 62.453 Q 609.676 63.376 608.006 64.855 A 34.609 34.609 0 0 1 606.825 65.85 Q 603.3 68.7 602.25 68.7 L 593.85 68.7 L 587.7 106.95 Q 587.55 108 586.875 112.05 A 76.279 76.279 0 0 0 586.58 113.963 Q 586.289 116.03 586.221 117.504 A 18.391 18.391 0 0 0 586.2 118.35 A 10.984 10.984 0 0 0 586.326 120.095 Q 586.821 123.153 589.261 123.294 A 4.166 4.166 0 0 0 589.5 123.3 A 5.766 5.766 0 0 0 591.658 122.855 Q 593.081 122.283 594.6 120.975 A 16.592 16.592 0 0 0 596.999 118.384 Q 598.003 117.054 598.904 115.401 A 30.435 30.435 0 0 0 599.4 114.45 A 3.739 3.739 0 0 1 599.642 114.038 A 4.434 4.434 0 0 1 599.775 113.85 A 0.927 0.927 0 0 1 599.923 113.692 A 0.577 0.577 0 0 1 600.3 113.55 Q 601.007 113.55 601.048 115.28 A 9.282 9.282 0 0 1 601.05 115.5 Q 601.05 118.5 598.425 122.55 Q 595.8 126.6 591.825 129.45 A 17.884 17.884 0 0 1 588.936 131.159 Q 586.473 132.3 584.1 132.3 A 10.294 10.294 0 0 1 581.782 132.057 Q 579.094 131.435 577.8 129.225 A 11.632 11.632 0 0 1 576.635 126.368 Q 576 124.017 576 120.9 A 51.211 51.211 0 0 1 576.264 115.82 A 63.019 63.019 0 0 1 576.675 112.575 Q 577.253 108.786 577.446 107.581 A 56.002 56.002 0 0 1 577.5 107.25 Z" id="10" vector-effect="non-scaling-stroke"/>
		<path d="M 636 65.1 L 632.7 86.1 L 632.85 86.1 Q 639.9 73.95 648.15 66.675 Q 655.046 60.594 660.371 59.596 A 11.01 11.01 0 0 1 662.4 59.4 A 6.001 6.001 0 0 1 665.551 60.186 Q 667.963 61.637 668.527 65.772 A 20.614 20.614 0 0 1 668.7 68.55 A 38.993 38.993 0 0 1 668.558 71.721 Q 668.288 75.019 667.5 79.35 L 664.65 93.6 A 1228.351 1228.351 0 0 0 663.172 101.21 Q 660.3 116.269 660.3 118.95 A 5.092 5.092 0 0 0 660.387 119.936 Q 660.727 121.65 662.4 121.65 A 4.059 4.059 0 0 0 664.765 120.858 Q 665.967 120.016 667.05 118.275 Q 669.15 114.9 671.55 109.35 A 0.731 0.731 0 0 0 671.623 109.26 Q 671.779 109.042 672.075 108.45 A 2.015 2.015 0 0 1 672.283 108.113 Q 672.419 107.939 672.577 107.838 A 0.862 0.862 0 0 1 673.05 107.7 Q 674.043 107.7 674.097 109.311 A 5.688 5.688 0 0 1 674.1 109.5 L 673.8 111.9 Q 672.75 117.3 669.525 122.025 A 32.652 32.652 0 0 1 666 126.379 A 25.376 25.376 0 0 1 662.325 129.525 A 20.206 20.206 0 0 1 659.907 130.989 Q 657.319 132.3 655.05 132.3 A 4.505 4.505 0 0 1 650.759 129.743 Q 649.761 127.836 649.661 124.505 A 25.289 25.289 0 0 1 649.65 123.75 A 44.739 44.739 0 0 1 649.811 120.09 Q 649.958 118.305 650.239 116.314 A 85.773 85.773 0 0 1 650.625 113.85 A 241.787 241.787 0 0 1 651.164 110.822 Q 651.991 106.332 653.223 100.445 A 676.127 676.127 0 0 1 653.4 99.6 A 835.203 835.203 0 0 0 654.249 95.522 Q 655.444 89.7 656.175 85.65 A 82.528 82.528 0 0 0 656.908 80.818 Q 657.181 78.537 657.277 76.483 A 49.262 49.262 0 0 0 657.3 75.9 A 28.408 28.408 0 0 0 657.274 74.625 Q 657.193 72.848 656.869 72.047 A 2.424 2.424 0 0 0 656.85 72 Q 656.445 71.055 654.702 70.961 A 7.458 7.458 0 0 0 654.3 70.95 Q 649.945 70.95 644.998 76.279 A 35.174 35.174 0 0 0 644.325 77.025 A 56.451 56.451 0 0 0 638.837 84.5 A 75.682 75.682 0 0 0 634.8 91.95 A 85.733 85.733 0 0 0 631.642 99.464 Q 630.156 103.562 629.324 107.369 A 51.425 51.425 0 0 0 629.1 108.45 L 626.7 121.5 A 10.309 10.309 0 0 1 625.094 125.574 Q 624.238 126.891 622.953 128.15 A 20.18 20.18 0 0 1 622.2 128.85 A 19.691 19.691 0 0 1 619.996 130.557 Q 618.805 131.34 617.676 131.771 A 7.48 7.48 0 0 1 615 132.3 Q 613.971 132.3 613.951 131.581 A 1.04 1.04 0 0 1 613.95 131.55 Q 614.073 130.815 614.646 128.729 A 151.271 151.271 0 0 1 614.925 127.725 Q 615.75 124.8 616.35 121.8 A 56.223 56.223 0 0 0 616.643 120.359 Q 617.906 113.813 622.5 86.25 Q 622.214 87.825 625.888 65.636 A 43308.798 43308.798 0 0 1 626.25 63.45 A 201.729 201.729 0 0 1 629.606 47.25 A 151.836 151.836 0 0 1 633.975 32.85 A 66.369 66.369 0 0 1 639.701 20.76 A 51.569 51.569 0 0 1 647.55 10.8 Q 652.5 6.15 657.075 4.275 A 40.587 40.587 0 0 1 665.598 1.855 A 45.704 45.704 0 0 1 666.9 1.65 Q 668.7 1.5 670.65 0.75 A 68.544 68.544 0 0 1 671.112 0.574 Q 672.638 0 672.9 0 A 1.307 1.307 0 0 1 673.341 0.068 Q 673.918 0.275 673.948 1.106 A 2.582 2.582 0 0 1 673.95 1.2 A 2.842 2.842 0 0 1 673.718 2.257 Q 673.159 3.641 671.25 5.55 A 11.222 11.222 0 0 1 670.345 6.368 Q 669.877 6.743 669.429 7.002 A 4.916 4.916 0 0 1 668.7 7.35 Q 667.5 7.8 666.225 7.95 Q 665.137 8.078 664.431 8.206 A 13.123 13.123 0 0 0 664.2 8.25 Q 660.185 8.824 657.335 10.426 A 14.413 14.413 0 0 0 657.075 10.575 A 17.631 17.631 0 0 0 654.709 12.271 Q 653.579 13.22 652.417 14.454 A 37.675 37.675 0 0 0 651 16.05 A 48.164 48.164 0 0 0 642.585 32.156 A 55.123 55.123 0 0 0 642.225 33.375 Q 640.317 40.13 638.587 49.26 A 330.012 330.012 0 0 0 637.05 58.05 Q 636.461 62.763 636.016 65.018 A 30.81 30.81 0 0 1 636 65.1 Z" id="11" vector-effect="non-scaling-stroke"/>
		<path d="M 691.95 109.65 L 697.05 78.75 Q 697.583 73.953 697.643 72.826 A 4.504 4.504 0 0 0 697.65 72.6 A 6.309 6.309 0 0 0 697.608 71.839 Q 697.513 71.056 697.197 70.684 A 0.933 0.933 0 0 0 696.45 70.35 A 3.69 3.69 0 0 0 694.415 71.062 Q 691.692 72.882 688.35 79.35 A 42.62 42.62 0 0 0 688.177 79.702 Q 687.912 80.243 687.48 81.155 A 325.317 325.317 0 0 0 687.375 81.375 A 16.103 16.103 0 0 1 687.091 81.948 Q 686.644 82.801 686.312 83.119 A 1.198 1.198 0 0 1 686.25 83.175 Q 685.883 83.481 685.515 83.538 A 1.091 1.091 0 0 1 685.35 83.55 A 0.405 0.405 0 0 1 685.13 83.479 Q 684.986 83.387 684.843 83.175 A 2.348 2.348 0 0 1 684.75 83.025 Q 684.454 82.507 684.45 81.771 A 3.732 3.732 0 0 1 684.45 81.75 Q 684.45 79.333 686.446 75.31 A 45.063 45.063 0 0 1 687.525 73.275 Q 690.6 67.8 695.1 63.6 A 21.763 21.763 0 0 1 697.715 61.488 Q 700.795 59.4 703.65 59.4 A 4.546 4.546 0 0 1 705.776 59.891 Q 706.645 60.342 707.314 61.207 A 6.025 6.025 0 0 1 707.475 61.425 Q 708.9 63.45 708.9 66.9 A 27.196 27.196 0 0 1 708.874 68.144 Q 708.811 69.507 708.6 70.35 L 701.55 114.6 A 85.897 85.897 0 0 0 701.448 115.335 Q 701.25 116.813 701.25 117.3 Q 701.25 120.257 703.365 120.438 A 3.34 3.34 0 0 0 703.65 120.45 A 8.883 8.883 0 0 0 707.479 119.512 Q 710.766 117.947 714.375 113.775 A 64.525 64.525 0 0 0 720.912 104.665 A 81.779 81.779 0 0 0 724.575 97.8 A 97.14 97.14 0 0 0 727.461 91.142 Q 728.724 87.88 729.528 84.953 A 45.584 45.584 0 0 0 730.35 81.45 L 732.45 70.5 A 16.895 16.895 0 0 1 733.825 66.551 A 12.429 12.429 0 0 1 737.325 62.25 Q 739.737 60.38 741.922 59.737 A 7.876 7.876 0 0 1 744.15 59.4 Q 745.35 59.4 745.35 60.15 A 1.231 1.231 0 0 1 745.317 60.406 Q 745.21 60.898 744.75 61.875 A 9.586 9.586 0 0 0 744.254 63.186 Q 744.009 63.994 743.85 64.95 A 236.591 236.591 0 0 0 742.92 69.303 Q 740.597 80.607 735.6 108.15 L 734.7 112.95 A 193.67 193.67 0 0 0 734.343 114.777 Q 733.65 118.425 733.65 119.4 Q 733.65 120.867 734.309 121.309 A 1.212 1.212 0 0 0 735 121.5 Q 737.03 121.5 739.435 118.764 A 20.63 20.63 0 0 0 740.325 117.675 Q 743.25 113.85 745.05 109.35 A 10.46 10.46 0 0 1 745.377 108.79 Q 745.91 107.943 746.323 107.754 A 0.547 0.547 0 0 1 746.55 107.7 A 0.824 0.824 0 0 1 747.022 107.83 Q 747.344 108.048 747.424 108.63 A 3.116 3.116 0 0 1 747.45 109.05 A 15.327 15.327 0 0 1 747.401 110.317 Q 747.328 111.188 747.15 111.9 Q 746.1 117.3 742.95 121.95 Q 739.8 126.6 735.9 129.45 A 19.408 19.408 0 0 1 733.521 130.953 Q 732.185 131.658 730.927 131.994 A 8.615 8.615 0 0 1 728.7 132.3 A 4.682 4.682 0 0 1 724.22 129.675 Q 723.009 127.359 723.15 123 A 46.056 46.056 0 0 1 723.455 120.191 Q 723.854 117.272 724.671 113.358 A 165.05 165.05 0 0 1 724.95 112.05 L 726.3 104.7 L 726.15 104.7 A 128.493 128.493 0 0 1 719.763 114.011 Q 715.059 120.228 710.25 124.725 A 52.355 52.355 0 0 1 706.485 127.95 Q 700.842 132.3 696.75 132.3 Q 690.45 132.3 690.45 122.85 Q 690.45 118.967 691.496 112.362 A 166.448 166.448 0 0 1 691.95 109.65 Z" id="12" vector-effect="non-scaling-stroke"/>
		<path d="M 758.85 131.4 L 758.7 131.4 A 45.268 45.268 0 0 0 759.982 127.469 A 35.653 35.653 0 0 0 760.65 124.575 Q 761.25 121.35 761.7 118.5 L 770.7 64.8 Q 774 43.65 779.025 30.45 Q 783.237 19.387 789.398 12.433 A 39.137 39.137 0 0 1 791.85 9.9 A 39.986 39.986 0 0 1 794.77 7.417 Q 797.489 5.335 799.95 4.35 Q 803.338 2.995 809.173 1.885 A 107.683 107.683 0 0 1 810.45 1.65 A 35.837 35.837 0 0 0 812.694 1.097 A 28.085 28.085 0 0 0 814.275 0.6 A 26.712 26.712 0 0 1 814.976 0.366 Q 815.953 0.057 816.439 0.009 A 1.659 1.659 0 0 1 816.6 0 Q 817.383 0 817.485 0.908 A 2.625 2.625 0 0 1 817.5 1.2 A 3.627 3.627 0 0 1 817.048 2.898 Q 816.365 4.197 814.65 5.55 A 13.711 13.711 0 0 1 813.568 6.338 Q 812.677 6.917 811.875 7.2 A 19.662 19.662 0 0 1 810.489 7.635 A 15.357 15.357 0 0 1 809.475 7.875 Q 808.35 8.1 807.9 8.25 Q 804.295 8.716 801.726 9.812 A 14.186 14.186 0 0 0 800.325 10.5 Q 797.4 12.15 794.4 16.35 A 44.76 44.76 0 0 0 790.87 22.626 Q 789.333 25.916 788.033 29.834 A 87.826 87.826 0 0 0 786.9 33.525 Q 783.9 44.1 780.75 63.6 L 777.15 85.8 L 777.3 85.8 Q 782.85 75.75 790.875 67.575 A 49.137 49.137 0 0 1 794.722 64.023 Q 798.822 60.656 802.269 59.742 A 9.664 9.664 0 0 1 804.75 59.4 A 5.796 5.796 0 0 1 809.411 61.641 A 9.269 9.269 0 0 1 810.375 63.075 A 13.326 13.326 0 0 1 811.523 65.999 Q 812.4 69.211 812.4 73.95 Q 812.4 89.25 806.55 102.75 A 68.64 68.64 0 0 1 800.308 114.204 A 51.764 51.764 0 0 1 791.4 124.275 Q 782.123 132.281 772.249 132.3 A 24.437 24.437 0 0 1 772.2 132.3 Q 769.8 132.3 766.5 131.7 Q 763.8 131.1 762.15 131.1 Q 760.95 131.1 760.05 131.25 Q 759.274 131.38 758.944 131.397 A 1.762 1.762 0 0 1 758.85 131.4 Z M 772.8 111.3 L 771.45 120.6 Q 775.35 123.3 780.15 123.3 A 11.648 11.648 0 0 0 787.426 120.696 Q 789.093 119.406 790.625 117.475 A 25.589 25.589 0 0 0 791.325 116.55 A 42.026 42.026 0 0 0 795.845 108.455 Q 797.447 104.715 798.599 100.337 A 69.372 69.372 0 0 0 798.75 99.75 A 83.941 83.941 0 0 0 800.934 87.613 A 69.722 69.722 0 0 0 801.3 80.55 A 51.565 51.565 0 0 0 801.253 78.267 Q 801.162 76.215 800.892 74.878 A 7.721 7.721 0 0 0 800.55 73.65 A 3.66 3.66 0 0 0 800.016 72.686 Q 799.236 71.7 797.85 71.7 A 6.132 6.132 0 0 0 795.353 72.294 Q 793.241 73.239 790.738 75.689 A 37.774 37.774 0 0 0 788.775 77.775 Q 783.793 83.459 779.534 91.899 A 96.985 96.985 0 0 0 778.95 93.075 A 75.269 75.269 0 0 0 774.354 104.802 A 63.583 63.583 0 0 0 772.8 111.3 Z" id="13" vector-effect="non-scaling-stroke"/>
		 <animate id="f1"
      			attributeName="stroke-dashoffset"
         		begin="0.1s;f1.end+0.4s"
         		values="0;0;2037;1000;300;2037;2037;2037"
         		dur="60s"
         	calcMode="linear"
     		/>  
	</g>
</svg>
