<svg width="589.95" height="81.901" viewBox="0 0 589.95 81.901" xmlns="http://www.w3.org/2000/svg">
	<g id="svgGroup" stroke-linecap="round" fill-rule="evenodd" font-size="9pt" stroke="#000" stroke-width="0.25mm" fill="none" style="stroke:#000;stroke-width:0.25mm;fill:none">
		<path d="M 0.363 79.921 A 0.864 0.864 0 0 0 0.6 79.95 A 1.739 1.739 0 0 0 1.438 79.739 A 2.211 2.211 0 0 0 1.95 79.35 L 3 78.3 Q 5.7 75.3 8.25 72 A 188.602 188.602 0 0 1 8.569 71.589 A 173.084 173.084 0 0 1 13.35 65.7 Q 18.6 59.25 24.15 52.95 Q 29.7 46.65 35.4 40.65 Q 37.8 40.35 40.2 40.2 Q 42.6 40.05 45 40.05 A 22.337 22.337 0 0 1 45.622 40.06 Q 47.177 40.103 49.65 40.35 A 74.989 74.989 0 0 1 51.953 40.618 A 90.989 90.989 0 0 1 56.025 41.25 A 40.459 40.459 0 0 1 59.213 41.944 A 29.845 29.845 0 0 1 62.025 42.825 A 12.561 12.561 0 0 1 63.284 43.368 Q 64.026 43.74 64.59 44.171 A 5.142 5.142 0 0 1 65.7 45.3 A 369.47 369.47 0 0 0 65.564 45.528 Q 64.595 47.145 63.295 49.35 A 1107.801 1107.801 0 0 0 62.325 51 A 173.778 173.778 0 0 0 61.313 52.749 A 195.685 195.685 0 0 0 58.275 58.275 Q 56.25 62.1 54.825 65.625 A 33.27 33.27 0 0 0 54.702 65.934 Q 53.4 69.25 53.4 71.4 A 17.105 17.105 0 0 0 53.434 72.491 Q 53.489 73.363 53.638 74.111 A 8.106 8.106 0 0 0 54.075 75.6 Q 54.594 76.87 56.402 77.163 A 7.526 7.526 0 0 0 57.6 77.25 A 11.155 11.155 0 0 0 59.35 77.119 A 8.382 8.382 0 0 0 61.8 76.35 A 1.192 1.192 0 0 1 61.747 76.228 Q 61.65 75.963 61.65 75.6 A 3.175 3.175 0 0 1 61.668 75.279 Q 61.789 74.089 62.749 71.746 A 48.634 48.634 0 0 1 63.45 70.125 Q 64.575 67.641 66.14 64.571 A 226.96 226.96 0 0 1 68.175 60.675 A 468.64 468.64 0 0 1 71.231 55.05 A 559.503 559.503 0 0 1 74.55 49.125 A 736.351 736.351 0 0 1 76.266 46.121 A 654.892 654.892 0 0 1 81.3 37.5 Q 83.363 34.032 85.103 31.09 A 2233.569 2233.569 0 0 0 87.075 27.75 A 660.583 660.583 0 0 1 87.458 27.102 Q 89.043 24.418 89.987 22.884 A 76.086 76.086 0 0 1 90.6 21.9 Q 92.4 19.05 93.975 15.675 A 18.468 18.468 0 0 0 94.344 14.83 A 15.738 15.738 0 0 0 95.55 8.85 A 11.048 11.048 0 0 0 95.315 6.498 A 6.799 6.799 0 0 0 92.4 2.1 A 12.098 12.098 0 0 0 89.159 0.576 A 14.186 14.186 0 0 0 85.05 0 Q 81.15 0 77.4 1.35 Q 73.65 2.7 70.5 4.8 Q 61.8 10.65 54 18 Q 46.2 25.35 38.85 32.85 Q 34.35 32.85 28.875 33.3 Q 23.4 33.75 18 35.325 A 33.077 33.077 0 0 0 15.622 36.116 A 27.773 27.773 0 0 0 8.55 39.975 A 16.053 16.053 0 0 0 6.1 42.27 A 16.781 16.781 0 0 0 2.85 48.15 Q 2.4 49.5 2.4 51.15 A 7.904 7.904 0 0 0 2.459 52.11 Q 2.6 53.261 3.074 54.484 A 14.633 14.633 0 0 0 4.125 56.625 A 7.826 7.826 0 0 0 4.934 57.765 A 4.792 4.792 0 0 0 8.7 59.55 A 4.593 4.593 0 0 0 8.879 59.547 Q 9.32 59.53 9.492 59.423 A 0.2 0.2 0 0 0 9.6 59.25 Q 9.6 58.676 8.941 58.014 A 5.553 5.553 0 0 0 8.475 57.6 Q 7.666 56.954 7.439 55.687 A 6.161 6.161 0 0 1 7.35 54.6 Q 7.35 52.5 8.55 50.85 A 13.419 13.419 0 0 1 11.048 47.95 A 16.268 16.268 0 0 1 14.625 45.6 Q 18.6 43.65 23.025 42.6 A 104.107 104.107 0 0 1 23.309 42.533 Q 25.436 42.035 27.369 41.677 A 63.577 63.577 0 0 1 31.05 41.1 A 66.218 66.218 0 0 1 30.583 41.628 Q 29.683 42.633 27.899 44.578 A 1037.5 1037.5 0 0 1 26.475 46.125 A 284.717 284.717 0 0 0 25.466 47.226 Q 23.925 48.916 22.225 50.832 A 501.009 501.009 0 0 0 18.525 55.05 Q 14.1 60.15 9.825 65.25 Q 7.153 68.438 5.067 71.157 A 107.273 107.273 0 0 0 2.775 74.25 Q 0.607 77.297 0.133 78.696 A 2.119 2.119 0 0 0 0 79.35 Q 0 79.817 0.363 79.921 Z M 67.495 42.333 A 464.157 464.157 0 0 0 66.9 43.35 Q 66.45 40.35 63.525 38.4 A 21.388 21.388 0 0 0 60.552 36.754 A 27.3 27.3 0 0 0 56.625 35.325 Q 52.65 34.2 48.825 33.675 Q 46.195 33.314 44.239 33.131 A 52.978 52.978 0 0 0 42.6 33 Q 49.2 26.1 56.4 19.425 Q 63.6 12.75 71.4 7.2 Q 73.35 5.85 76.2 4.65 Q 79.05 3.45 81.45 3.45 A 6.69 6.69 0 0 1 82.178 3.492 Q 83.407 3.626 84.9 4.2 Q 86.647 4.872 86.227 7.35 A 7.977 7.977 0 0 1 86.1 7.95 A 5.049 5.049 0 0 1 86.078 8.057 Q 85.825 9.192 84.827 11.387 A 62.356 62.356 0 0 1 84.075 12.975 A 155.04 155.04 0 0 1 83.577 13.985 Q 82.809 15.525 81.921 17.226 A 265.763 265.763 0 0 1 79.95 20.925 Q 77.55 25.35 74.925 29.775 Q 72.3 34.2 70.125 37.875 A 3158.092 3158.092 0 0 0 70.086 37.941 Q 68.482 40.652 67.495 42.333 Z" id="0" vector-effect="non-scaling-stroke"/>
		<path d="M 97.238 76.665 A 8.151 8.151 0 0 0 99.45 76.95 A 10.59 10.59 0 0 0 103.052 76.315 A 13.129 13.129 0 0 0 106.125 74.7 A 58.207 58.207 0 0 0 108.878 72.661 A 44.536 44.536 0 0 0 111.75 70.2 Q 112.238 69.835 113.517 68.479 A 84.033 84.033 0 0 0 114.15 67.8 A 434.621 434.621 0 0 1 115.341 66.516 Q 116.724 65.03 118.425 63.225 Q 120.9 60.6 123.225 57.975 A 344.214 344.214 0 0 0 123.337 57.849 Q 125.01 55.958 126.249 54.502 A 124.401 124.401 0 0 0 127.05 53.55 Q 128.55 51.75 128.55 51.45 Q 128.55 50.984 128.188 50.88 A 0.864 0.864 0 0 0 127.95 50.85 A 0.085 0.085 0 0 0 127.943 50.851 Q 127.669 50.872 126.162 52.63 A 66.799 66.799 0 0 0 125.7 53.175 Q 124.481 54.629 122.911 56.463 A 726.255 726.255 0 0 1 120.9 58.8 Q 118.05 62.1 114.825 65.475 A 57.868 57.868 0 0 1 112.005 68.239 A 44.415 44.415 0 0 1 108.45 71.175 Q 106.481 72.629 104.806 73.173 A 6.167 6.167 0 0 1 102.9 73.5 Q 101.4 73.5 100.35 72.525 A 3.201 3.201 0 0 1 99.531 71.341 A 3.504 3.504 0 0 1 99.3 70.05 Q 99.3 68.475 100.481 65.972 A 28.814 28.814 0 0 1 101.4 64.2 A 68.006 68.006 0 0 1 103.744 60.338 A 90.652 90.652 0 0 1 106.575 56.25 A 182.089 182.089 0 0 1 108.86 53.195 A 150.464 150.464 0 0 1 112.575 48.525 A 7149.883 7149.883 0 0 1 113.868 46.968 Q 115.204 45.359 116.161 44.208 A 1599.14 1599.14 0 0 1 117 43.2 A 8.625 8.625 0 0 0 117.299 42.886 A 9.59 9.59 0 0 0 118.35 41.475 A 4.556 4.556 0 0 0 118.507 41.2 A 3.729 3.729 0 0 0 118.95 39.45 A 2.377 2.377 0 0 0 118.233 37.699 A 3.468 3.468 0 0 0 117.45 37.125 A 10.977 10.977 0 0 0 116.871 36.829 A 12.032 12.032 0 0 0 114.15 35.925 A 23.105 23.105 0 0 0 113.059 35.724 Q 111.966 35.55 111.15 35.55 Q 110.4 35.55 109.95 36.3 A 3.837 3.837 0 0 1 109.447 36.54 Q 108.528 36.9 107.25 36.9 A 7.351 7.351 0 0 1 105.675 36.728 A 8.668 8.668 0 0 1 103.65 36 A 4.121 4.121 0 0 1 103.448 35.892 Q 102.407 35.297 102.044 34.249 A 3.8 3.8 0 0 1 101.85 33 A 6.163 6.163 0 0 1 101.872 32.483 Q 101.977 31.237 102.587 29.991 A 10.237 10.237 0 0 1 103.725 28.2 A 39.688 39.688 0 0 1 105.395 26.197 A 30.352 30.352 0 0 1 107.475 24.075 A 97.18 97.18 0 0 0 107.923 23.661 Q 109.35 22.331 109.35 22.2 Q 109.35 21.734 108.988 21.63 A 0.864 0.864 0 0 0 108.75 21.6 A 0.089 0.089 0 0 0 108.737 21.602 Q 108.522 21.635 106.425 22.575 Q 104.25 23.55 103.65 23.7 L 100.05 25.5 Q 97.65 26.7 95.7 28.275 A 7.97 7.97 0 0 0 94.899 29.012 Q 94.452 29.487 94.179 29.97 A 3.077 3.077 0 0 0 93.75 31.5 A 2.173 2.173 0 0 0 94.039 32.554 Q 94.234 32.908 94.559 33.263 A 6.157 6.157 0 0 0 95.25 33.9 Q 96.75 35.1 97.65 35.7 Q 95.85 39.45 93.6 42.9 Q 91.35 46.35 88.8 49.5 Q 87.15 51.6 85.425 53.55 Q 83.7 55.5 82.05 57.6 Q 81.741 57.91 81.644 58.148 A 0.54 0.54 0 0 0 81.6 58.35 Q 81.6 58.7 81.872 58.778 A 0.648 0.648 0 0 0 82.05 58.8 Q 82.65 58.8 84.375 56.775 A 145.985 145.985 0 0 0 85.519 55.415 Q 86.124 54.687 86.795 53.863 A 300.94 300.94 0 0 0 88.5 51.75 Q 90.9 48.75 93.225 45.525 A 624.272 624.272 0 0 0 93.867 44.633 Q 95.793 41.952 97.275 39.825 A 249.028 249.028 0 0 0 97.864 38.977 Q 98.756 37.685 99.192 37.011 A 14.963 14.963 0 0 0 99.45 36.6 A 51.264 51.264 0 0 0 99.865 36.749 A 56.581 56.581 0 0 0 102.9 37.725 Q 104.7 38.25 106.35 38.25 A 9.491 9.491 0 0 0 106.693 38.244 Q 107.293 38.223 107.817 38.123 A 5.205 5.205 0 0 0 108.9 37.8 Q 107.25 40.5 104.55 44.775 Q 101.85 49.05 99.15 53.85 A 111.331 111.331 0 0 0 97.092 57.676 A 88.858 88.858 0 0 0 94.575 63 A 30.756 30.756 0 0 0 93.566 65.649 Q 92.7 68.311 92.7 70.35 A 8.467 8.467 0 0 0 92.79 71.605 A 5.995 5.995 0 0 0 94.575 75.15 A 6.21 6.21 0 0 0 97.238 76.665 Z" id="1" vector-effect="non-scaling-stroke"/>
		<path d="M 141.75 39.15 L 139.8 42.3 Q 137.25 46.5 135 50.925 Q 132.75 55.35 131.1 60.15 Q 130.2 62.55 129.3 65.85 A 29.311 29.311 0 0 0 128.717 68.408 Q 128.489 69.686 128.425 70.828 A 15.561 15.561 0 0 0 128.4 71.7 A 6.721 6.721 0 0 0 128.519 72.929 A 8.856 8.856 0 0 0 128.775 73.95 A 1.656 1.656 0 0 0 129.224 74.69 Q 129.721 75.15 130.65 75.15 Q 132.6 75.15 135.525 72.9 A 57.927 57.927 0 0 0 140.529 68.561 A 63.728 63.728 0 0 0 141.225 67.875 L 145.2 63.9 A 57.635 57.635 0 0 0 147.811 60.949 Q 149.137 59.351 150.54 57.468 A 109.383 109.383 0 0 0 151.65 55.95 Q 155.1 51.15 157.5 45.975 A 28.812 28.812 0 0 0 159.098 41.729 Q 159.794 39.277 159.886 36.995 A 17.181 17.181 0 0 0 159.9 36.3 A 10.269 10.269 0 0 0 159.764 34.584 Q 159.596 33.594 159.221 32.773 A 6.166 6.166 0 0 0 159.075 32.475 A 17.856 17.856 0 0 1 158.754 31.833 Q 158.314 30.904 158.258 30.429 A 1.106 1.106 0 0 1 158.25 30.3 Q 158.25 29.803 158.87 29.718 A 2.078 2.078 0 0 1 159.15 29.7 A 3.138 3.138 0 0 1 161.561 30.772 A 4.329 4.329 0 0 1 161.85 31.125 A 10.884 10.884 0 0 1 163.171 33.513 A 12.981 12.981 0 0 1 163.5 34.425 Q 163.932 35.775 164.053 36.852 A 7.161 7.161 0 0 1 164.1 37.65 Q 164.1 39.75 163.5 41.4 A 13.836 13.836 0 0 1 162.918 42.905 Q 162.201 44.506 160.887 46.684 A 70.082 70.082 0 0 1 159.975 48.15 Q 157.222 52.466 153.287 57.447 A 157.052 157.052 0 0 1 153.225 57.525 Q 149.25 62.55 144.9 67.05 A 81.051 81.051 0 0 1 141.18 70.672 Q 139.282 72.399 137.478 73.781 A 45.699 45.699 0 0 1 136.65 74.4 A 24.5 24.5 0 0 1 134.673 75.713 Q 132.632 76.92 131.038 77.179 A 5.22 5.22 0 0 1 130.2 77.25 Q 127.225 77.25 125.364 76.07 A 5.817 5.817 0 0 1 123.75 74.55 A 9.917 9.917 0 0 1 122.148 70.931 Q 121.8 69.424 121.8 67.65 Q 121.8 64.65 122.475 61.575 Q 123.15 58.5 124.05 55.65 A 13.365 13.365 0 0 1 124.25 54.949 Q 124.629 53.725 125.475 51.525 A 288.291 288.291 0 0 1 126.656 48.507 A 349.797 349.797 0 0 1 127.95 45.3 A 118.628 118.628 0 0 1 129.281 42.169 A 87.881 87.881 0 0 1 130.575 39.375 Q 131.85 36.75 132.6 36 A 1.119 1.119 0 0 1 132.817 35.921 Q 133.049 35.86 133.387 35.852 A 4.461 4.461 0 0 1 133.5 35.85 Q 134.115 35.85 135.64 36.103 A 57.525 57.525 0 0 1 136.35 36.225 A 31.743 31.743 0 0 1 139.374 36.914 A 28.185 28.185 0 0 1 140.325 37.2 Q 141.929 37.714 142.161 38.337 A 0.608 0.608 0 0 1 142.2 38.55 A 0.232 0.232 0 0 1 142.165 38.678 Q 142.127 38.737 142.05 38.775 A 0.383 0.383 0 0 0 141.956 38.844 Q 141.876 38.922 141.797 39.063 A 1.939 1.939 0 0 0 141.75 39.15 Z" id="2" vector-effect="non-scaling-stroke"/>
		<path d="M 158.569 76.657 A 8.102 8.102 0 0 0 160.8 76.95 A 10.59 10.59 0 0 0 164.402 76.315 A 13.129 13.129 0 0 0 167.475 74.7 A 58.207 58.207 0 0 0 170.228 72.661 A 44.536 44.536 0 0 0 173.1 70.2 Q 173.588 69.835 174.867 68.479 A 84.033 84.033 0 0 0 175.5 67.8 A 434.621 434.621 0 0 1 176.691 66.516 Q 178.074 65.03 179.775 63.225 Q 182.25 60.6 184.575 57.975 Q 186.319 56.007 187.599 54.502 A 124.401 124.401 0 0 0 188.4 53.55 Q 189.9 51.75 189.9 51.45 Q 189.9 50.984 189.538 50.88 A 0.864 0.864 0 0 0 189.3 50.85 A 0.087 0.087 0 0 0 189.293 50.851 Q 189.019 50.871 187.512 52.573 A 65.233 65.233 0 0 0 187.05 53.1 A 323.185 323.185 0 0 0 187.004 53.154 Q 185.066 55.391 182.25 58.725 Q 179.4 62.1 176.175 65.4 A 63.958 63.958 0 0 1 173.006 68.438 A 46.839 46.839 0 0 1 169.95 70.95 Q 167.981 72.427 166.4 72.935 A 5.086 5.086 0 0 1 164.85 73.2 A 3.978 3.978 0 0 1 163.85 73.085 Q 162.15 72.643 162.15 70.5 Q 162.15 68.7 163.725 65.25 A 51.74 51.74 0 0 1 163.938 64.79 Q 164.698 63.167 165.653 61.415 A 85.331 85.331 0 0 1 167.775 57.75 Q 170.25 53.7 173.1 49.95 A 125.239 125.239 0 0 1 173.281 49.713 Q 174.633 47.943 175.917 46.393 A 77.163 77.163 0 0 1 178.5 43.425 A 29.351 29.351 0 0 1 179.473 42.413 Q 180.709 41.191 181.701 40.56 A 5.197 5.197 0 0 1 182.7 40.05 A 1.027 1.027 0 0 0 182.471 39.43 Q 182.177 39.039 181.509 38.664 A 7.853 7.853 0 0 0 180.825 38.325 Q 178.95 37.5 176.925 36.9 A 38.843 38.843 0 0 0 176.629 36.814 Q 174.844 36.3 174.15 36.3 A 6.22 6.22 0 0 0 173.567 36.327 A 4.769 4.769 0 0 0 170.1 38.25 A 50.115 50.115 0 0 0 169.684 38.799 A 44.936 44.936 0 0 0 167.4 42.15 Q 166.05 44.1 163.875 47.925 A 156.059 156.059 0 0 0 162.233 50.889 A 191.014 191.014 0 0 0 159.45 56.25 Q 157.2 60.75 155.7 64.65 Q 154.663 67.347 154.343 69.255 A 9.418 9.418 0 0 0 154.2 70.8 A 7.731 7.731 0 0 0 154.266 71.827 A 5.421 5.421 0 0 0 156.075 75.3 A 6.374 6.374 0 0 0 158.569 76.657 Z M 181.293 30.901 A 3.256 3.256 0 0 0 182.7 31.2 A 4.963 4.963 0 0 0 184.043 31.017 Q 185.834 30.516 187.425 28.65 Q 189.6 26.1 189.6 23.7 A 4.741 4.741 0 0 0 189.535 22.898 A 3.435 3.435 0 0 0 188.775 21.225 A 2.633 2.633 0 0 0 187.431 20.374 A 3.692 3.692 0 0 0 186.45 20.25 A 5.528 5.528 0 0 0 185.453 20.341 Q 183.442 20.709 181.575 22.575 Q 180.631 23.52 180.07 24.502 A 5.874 5.874 0 0 0 179.25 27.45 Q 179.25 28.95 180.225 30.075 A 3.24 3.24 0 0 0 181.293 30.901 Z" id="3" vector-effect="non-scaling-stroke"/>
		<path d="M 210.15 76.95 Q 207.6 76.95 205.425 75.45 A 4.809 4.809 0 0 1 203.303 71.958 A 6.713 6.713 0 0 1 203.25 71.1 Q 203.25 69.3 204.225 66.45 Q 205.2 63.6 206.55 60.825 A 342.563 342.563 0 0 0 207.188 59.508 Q 207.806 58.222 208.266 57.236 A 103.078 103.078 0 0 0 208.65 56.4 Q 205.65 60.6 202.125 64.5 Q 198.6 68.4 194.7 71.85 A 48.629 48.629 0 0 0 193.889 72.432 Q 192.99 73.089 191.832 73.986 A 164.732 164.732 0 0 0 190.725 74.85 A 13.199 13.199 0 0 1 189.374 75.793 Q 187.76 76.765 186.399 76.799 A 3.941 3.941 0 0 1 186.3 76.8 A 7.698 7.698 0 0 1 181.631 75.213 A 10.259 10.259 0 0 1 180.825 74.55 A 7.813 7.813 0 0 1 179.112 72.368 A 6.892 6.892 0 0 1 178.35 69.15 Q 178.35 67.05 179.25 65.25 A 49.265 49.265 0 0 1 182.015 60.332 Q 183.508 57.984 185.382 55.529 A 81.76 81.76 0 0 1 185.925 54.825 Q 190.2 49.35 195.6 44.25 A 104.113 104.113 0 0 1 205.9 35.675 A 95.488 95.488 0 0 1 206.7 35.1 A 60.976 60.976 0 0 1 211.573 31.959 Q 214.631 30.197 217.5 29.1 A 7.824 7.824 0 0 1 218.033 28.942 Q 218.588 28.8 219 28.8 Q 220.5 28.8 221.175 30.3 A 39.853 39.853 0 0 0 221.671 31.362 Q 222.075 32.194 222.45 32.85 Q 225.3 28.5 228.15 24.3 L 233.85 15.9 A 188.347 188.347 0 0 0 235.917 12.849 A 215.952 215.952 0 0 0 236.625 11.775 A 33.892 33.892 0 0 1 238.252 9.495 A 26.901 26.901 0 0 1 239.55 7.95 A 0.573 0.573 0 0 1 239.625 7.835 Q 239.767 7.667 240 7.725 A 4.277 4.277 0 0 0 240.141 7.758 Q 240.282 7.789 240.38 7.797 A 0.811 0.811 0 0 0 240.45 7.8 A 3.081 3.081 0 0 1 240.73 7.816 Q 241.431 7.882 243.094 8.224 A 78.547 78.547 0 0 1 243.225 8.25 A 74.646 74.646 0 0 1 246.345 8.964 A 64.659 64.659 0 0 1 247.35 9.225 A 10.788 10.788 0 0 1 248 9.421 Q 249.3 9.861 249.3 10.35 Q 249.3 10.5 249.15 10.65 Q 247.65 12.75 246 14.85 L 242.7 19.05 Q 237.75 25.8 233.025 32.85 Q 228.3 39.9 223.65 47.1 Q 220.8 51.75 217.875 56.55 Q 214.95 61.35 212.7 66.6 A 11.377 11.377 0 0 0 212.03 68.226 Q 211.739 69.138 211.671 69.987 A 6.41 6.41 0 0 0 211.65 70.5 A 4.132 4.132 0 0 0 211.771 71.548 Q 212.123 72.887 213.499 73.141 A 3.866 3.866 0 0 0 214.2 73.2 Q 216.45 73.2 219.45 70.95 A 46.839 46.839 0 0 0 222.506 68.438 A 63.958 63.958 0 0 0 225.675 65.4 Q 228.9 62.1 231.75 58.725 Q 234.6 55.35 236.475 53.1 A 38.453 38.453 0 0 1 237.103 52.364 Q 238.291 51.01 238.711 50.867 A 0.279 0.279 0 0 1 238.8 50.85 A 0.473 0.473 0 0 1 239.007 50.893 Q 239.207 50.989 239.242 51.304 A 1.312 1.312 0 0 1 239.25 51.45 A 0.463 0.463 0 0 1 239.177 51.633 Q 238.867 52.184 237.231 54.105 A 113.649 113.649 0 0 1 237 54.375 A 197.453 197.453 0 0 1 235.186 56.46 Q 233.569 58.294 231.6 60.45 Q 228.456 63.894 225.91 66.665 A 759.608 759.608 0 0 0 225.9 66.675 A 513.957 513.957 0 0 1 225.007 67.645 Q 223.209 69.591 222.6 70.2 A 41.188 41.188 0 0 1 219.796 72.591 A 55.112 55.112 0 0 1 216.9 74.7 Q 213.6 76.95 210.15 76.95 Z M 185.85 72.75 A 5.118 5.118 0 0 0 186.957 72.621 Q 187.472 72.507 188.032 72.292 A 10.058 10.058 0 0 0 188.55 72.075 Q 189.558 71.622 190.295 71.202 A 10.973 10.973 0 0 0 190.95 70.8 A 38.173 38.173 0 0 0 194.756 68.344 Q 196.627 66.982 198.551 65.285 A 61.224 61.224 0 0 0 198.675 65.175 Q 202.65 61.65 206.25 57.6 A 83.413 83.413 0 0 0 208.76 54.647 Q 210.09 53.004 211.17 51.471 A 46.108 46.108 0 0 0 212.1 50.1 Q 214.2 46.95 216.075 43.575 Q 217.95 40.2 219.9 37.05 Q 209.85 41.4 201.45 48.825 Q 193.05 56.25 187.35 65.7 A 45.575 45.575 0 0 0 187.027 66.277 Q 186.669 66.925 186.211 67.792 A 159.649 159.649 0 0 0 185.775 68.625 A 13.006 13.006 0 0 0 185.304 69.627 Q 184.875 70.658 184.811 71.437 A 3.237 3.237 0 0 0 184.8 71.7 A 1.512 1.512 0 0 0 184.852 72.116 Q 184.986 72.582 185.461 72.706 A 1.547 1.547 0 0 0 185.85 72.75 Z" id="4" vector-effect="non-scaling-stroke"/>
		<path d="M 239.7 32.4 A 2.263 2.263 0 0 0 239.703 32.508 Q 239.747 33.45 240.6 33.45 A 1.298 1.298 0 0 0 240.99 33.379 Q 241.95 33.071 243.9 31.425 A 85.089 85.089 0 0 0 246.394 29.232 A 116.441 116.441 0 0 0 249.075 26.7 A 72.259 72.259 0 0 0 251.663 24.057 A 54.238 54.238 0 0 0 253.875 21.525 A 30.262 30.262 0 0 0 254.405 20.86 Q 255.499 19.443 255.793 18.649 A 1.482 1.482 0 0 0 255.9 18.15 Q 255.9 16.95 254.325 15.975 A 12.094 12.094 0 0 0 253.409 15.463 A 13.64 13.64 0 0 0 250.8 14.475 Q 248.85 13.95 247.95 13.95 A 2.194 2.194 0 0 0 247.54 13.986 Q 246.725 14.142 246.519 14.968 A 2.63 2.63 0 0 0 246.45 15.6 Q 246.45 16.65 246.675 17.55 Q 246.9 18.45 246.9 19.5 A 13.244 13.244 0 0 1 246.898 19.734 A 10.783 10.783 0 0 1 244.8 26.1 Q 242.7 28.95 240 31.35 Q 239.817 31.716 239.746 32.026 A 1.671 1.671 0 0 0 239.7 32.4 Z" id="5" vector-effect="non-scaling-stroke"/>
		<path d="M 260.1 81.9 Q 255.75 81.9 253.725 78.525 Q 251.7 75.15 251.7 71.25 Q 251.7 71.018 251.745 70.605 A 16.466 16.466 0 0 1 251.775 70.35 A 0.903 0.903 0 0 1 251.842 70.095 Q 251.967 69.815 252.29 69.763 A 0.999 0.999 0 0 1 252.45 69.75 A 0.575 0.575 0 0 1 252.745 69.824 Q 252.951 69.944 253.045 70.259 A 1.354 1.354 0 0 1 253.05 70.275 A 7.96 7.96 0 0 0 253.144 70.582 Q 253.247 70.894 253.35 71.1 A 7.227 7.227 0 0 0 254.437 73.351 Q 256.106 75.6 259.5 75.6 A 6.45 6.45 0 0 0 261.559 75.285 A 5.434 5.434 0 0 0 263.7 73.95 A 5.538 5.538 0 0 0 265.259 70.808 A 7.756 7.756 0 0 0 265.35 69.6 A 13.513 13.513 0 0 0 264.849 66.031 A 18.211 18.211 0 0 0 263.85 63.3 Q 262.35 60 260.775 56.25 Q 259.2 52.5 259.2 48.45 A 17.699 17.699 0 0 1 259.446 45.43 A 13.424 13.424 0 0 1 260.25 42.6 A 10.68 10.68 0 0 1 261.707 40.038 Q 262.464 39.036 263.502 38.067 A 19.902 19.902 0 0 1 264.225 37.425 Q 267.15 34.95 271.05 33 A 42.566 42.566 0 0 1 277.38 30.428 A 38.186 38.186 0 0 1 278.85 30 Q 281.61 29.257 283.77 29.04 A 16.836 16.836 0 0 1 285.45 28.95 A 10.27 10.27 0 0 1 286.884 29.043 Q 288.514 29.273 289.337 30.081 A 2.631 2.631 0 0 1 289.65 30.45 Q 290.679 31.921 290.7 34.833 A 16.903 16.903 0 0 1 290.7 34.95 A 6.349 6.349 0 0 1 290.685 35.362 Q 290.653 35.855 290.55 36.525 A 2.179 2.179 0 0 1 290.408 37.045 A 1.341 1.341 0 0 1 289.65 37.8 A 43.127 43.127 0 0 0 286.017 39.149 A 57.467 57.467 0 0 0 282.6 40.725 A 11.657 11.657 0 0 0 279.863 42.588 A 9.28 9.28 0 0 0 277.5 46.05 Q 277.361 46.468 276.964 46.498 A 0.838 0.838 0 0 1 276.9 46.5 A 1.08 1.08 0 0 1 276.603 46.463 Q 276.27 46.368 276.182 46.028 A 1.105 1.105 0 0 1 276.15 45.75 A 4.281 4.281 0 0 1 276.505 44.111 Q 277.041 42.818 278.385 41.359 A 17.297 17.297 0 0 1 278.7 41.025 Q 280.91 38.75 282.444 37.658 A 10.621 10.621 0 0 1 282.9 37.35 A 45.69 45.69 0 0 0 274.81 40.457 A 50.583 50.583 0 0 0 274.275 40.725 A 22.134 22.134 0 0 0 269.106 44.319 A 19.978 19.978 0 0 0 267.225 46.35 A 12.349 12.349 0 0 0 264.721 51.945 A 17.059 17.059 0 0 0 264.45 55.05 Q 264.45 59.7 266.4 63.825 Q 268.35 67.95 268.35 72.6 Q 268.35 76.35 266.325 79.125 A 6.517 6.517 0 0 1 262.291 81.681 A 10.304 10.304 0 0 1 260.1 81.9 Z" id="6" vector-effect="non-scaling-stroke"/>
		<path d="M 390.6 50.4 L 390.6 49.35 Q 387.75 48.6 384.975 48.375 Q 382.2 48.15 379.35 48.15 Q 376.772 48.15 373.449 48.328 A 187.304 187.304 0 0 0 370.275 48.525 Q 364.95 48.9 359.475 50.025 A 48.016 48.016 0 0 0 353.012 51.813 A 40.286 40.286 0 0 0 349.5 53.25 A 18.903 18.903 0 0 0 346.007 55.336 A 13.937 13.937 0 0 0 342.75 58.8 A 9.21 9.21 0 0 0 341.996 60.301 Q 341.627 61.255 341.563 62.172 A 5.483 5.483 0 0 0 341.55 62.55 A 6.161 6.161 0 0 0 341.639 63.637 Q 341.866 64.904 342.675 65.55 A 5.553 5.553 0 0 1 343.141 65.964 Q 343.8 66.626 343.8 67.2 Q 343.8 67.65 342.9 67.65 A 4.721 4.721 0 0 1 339.211 65.91 A 7.9 7.9 0 0 1 338.325 64.65 A 16.297 16.297 0 0 1 337.347 62.67 Q 336.927 61.635 336.743 60.682 A 7.551 7.551 0 0 1 336.6 59.25 A 5.593 5.593 0 0 1 336.697 58.234 A 6.858 6.858 0 0 1 336.825 57.675 Q 337.05 56.85 337.2 56.1 Q 338.7 51.15 342.525 48.15 A 26.595 26.595 0 0 1 349.431 44.274 A 31.38 31.38 0 0 1 351.45 43.575 Q 356.55 42 361.8 41.4 Q 367.05 40.8 371.4 40.8 Q 373.95 40.8 376.5 40.95 Q 379.05 41.1 381.45 41.4 Q 383.25 41.55 386.325 42.225 A 43.409 43.409 0 0 1 391.764 43.809 A 48.295 48.295 0 0 1 392.55 44.1 Q 395.7 45.3 397.875 47.1 A 6.526 6.526 0 0 1 399.222 48.588 A 5.18 5.18 0 0 1 400.05 51.45 Q 400.05 51.695 399.9 52.391 A 24.254 24.254 0 0 1 399.825 52.725 A 3.473 3.473 0 0 1 399.729 53.069 Q 399.614 53.404 399.458 53.561 A 0.424 0.424 0 0 1 399.15 53.7 Q 398.864 53.7 398.851 53.495 A 0.316 0.316 0 0 1 398.85 53.475 A 0.554 0.554 0 0 0 398.816 53.278 A 0.498 0.498 0 0 0 398.7 53.1 Q 397.952 52.103 396.529 51.364 A 10.408 10.408 0 0 0 395.925 51.075 A 21.522 21.522 0 0 0 394.464 50.492 Q 393.728 50.231 393.061 50.065 A 11.454 11.454 0 0 0 392.55 49.95 Q 392.7 50.25 392.7 51.15 Q 392.7 57.15 389.025 62.025 A 32.641 32.641 0 0 1 382.949 68.13 A 40.53 40.53 0 0 1 379.425 70.575 Q 373.5 74.25 366.6 76.725 A 94.341 94.341 0 0 1 356.419 79.763 A 83.024 83.024 0 0 1 353.1 80.475 A 83.526 83.526 0 0 1 348.403 81.252 Q 346.089 81.564 344.049 81.68 A 41.162 41.162 0 0 1 341.7 81.75 A 38.336 38.336 0 0 1 330.45 80.132 A 35.078 35.078 0 0 1 326.7 78.75 Q 319.8 75.75 315.525 69.825 A 22.237 22.237 0 0 1 311.721 60.672 A 30.458 30.458 0 0 1 311.25 55.2 Q 311.25 46.05 315.6 37.8 A 56.651 56.651 0 0 1 325.887 24.018 A 64.413 64.413 0 0 1 327.225 22.725 Q 334.5 15.9 343.425 10.875 A 86.363 86.363 0 0 1 360.489 3.497 A 80.477 80.477 0 0 1 361.65 3.15 A 70.797 70.797 0 0 1 371.235 1.044 A 55.579 55.579 0 0 1 379.2 0.45 Q 382.95 0.45 386.925 1.65 A 16.771 16.771 0 0 1 391.922 4.079 A 15.495 15.495 0 0 1 393.675 5.55 A 9.008 9.008 0 0 1 396.298 10.74 A 12.76 12.76 0 0 1 396.45 12.75 Q 396.45 17.85 392.625 22.35 Q 388.8 26.85 384.75 29.7 A 17.314 17.314 0 0 0 384.391 29.947 Q 384.233 30.058 384.06 30.184 A 32.776 32.776 0 0 0 383.7 30.45 Q 383.1 30.9 382.35 30.9 A 0.884 0.884 0 0 1 382.026 30.846 Q 381.641 30.695 381.604 30.126 A 1.937 1.937 0 0 1 381.6 30 A 2.498 2.498 0 0 1 381.738 29.231 Q 381.975 28.505 382.621 27.556 A 15.533 15.533 0 0 1 383.25 26.7 A 28.507 28.507 0 0 0 384.694 24.676 Q 385.39 23.61 386.086 22.371 A 50.142 50.142 0 0 0 386.55 21.525 A 13.792 13.792 0 0 0 388.031 16.895 A 17.808 17.808 0 0 0 388.2 14.4 Q 388.2 8.4 384 6.15 A 19.105 19.105 0 0 0 376.482 3.98 A 23.214 23.214 0 0 0 374.55 3.9 Q 364.35 3.9 354.9 7.875 Q 345.45 11.85 337.8 18.75 Q 330.15 25.65 325.05 34.2 A 47.558 47.558 0 0 0 321.106 42.429 A 52.952 52.952 0 0 0 320.775 43.35 A 30.138 30.138 0 0 0 319.065 52.322 A 28.422 28.422 0 0 0 319.05 53.25 A 24.195 24.195 0 0 0 319.529 58.214 Q 320.171 61.278 321.676 63.623 A 13.678 13.678 0 0 0 323.1 65.475 A 21.018 21.018 0 0 0 332.227 71.278 A 25.467 25.467 0 0 0 333.375 71.625 Q 339.6 73.35 346.2 73.35 A 69.464 69.464 0 0 0 351.03 73.17 Q 353.566 72.993 356.411 72.641 A 128.764 128.764 0 0 0 358.425 72.375 Q 365.4 71.4 372.225 69 A 42.437 42.437 0 0 0 380.009 65.383 A 35.934 35.934 0 0 0 384.075 62.55 Q 389.1 58.5 390.45 52.2 Q 390.6 51.75 390.6 51.3 L 390.6 50.4 Z" id="8" vector-effect="non-scaling-stroke"/>
		<path d="M 403.369 76.657 A 8.102 8.102 0 0 0 405.6 76.95 A 10.59 10.59 0 0 0 409.202 76.315 A 13.129 13.129 0 0 0 412.275 74.7 A 58.207 58.207 0 0 0 415.028 72.661 A 44.536 44.536 0 0 0 417.9 70.2 Q 418.388 69.835 419.667 68.479 A 84.033 84.033 0 0 0 420.3 67.8 A 434.621 434.621 0 0 1 421.491 66.516 Q 422.874 65.03 424.575 63.225 Q 427.05 60.6 429.375 57.975 Q 431.119 56.007 432.399 54.502 A 124.401 124.401 0 0 0 433.2 53.55 Q 434.7 51.75 434.7 51.45 Q 434.7 50.984 434.338 50.88 A 0.864 0.864 0 0 0 434.1 50.85 A 0.087 0.087 0 0 0 434.093 50.851 Q 433.819 50.871 432.312 52.573 A 65.233 65.233 0 0 0 431.85 53.1 A 323.185 323.185 0 0 0 431.804 53.154 Q 429.866 55.391 427.05 58.725 Q 424.2 62.1 420.975 65.4 A 63.958 63.958 0 0 1 417.806 68.438 A 46.839 46.839 0 0 1 414.75 70.95 Q 412.781 72.427 411.2 72.935 A 5.086 5.086 0 0 1 409.65 73.2 A 3.978 3.978 0 0 1 408.65 73.085 Q 406.95 72.643 406.95 70.5 Q 406.95 68.7 408.525 65.25 A 51.74 51.74 0 0 1 408.738 64.79 Q 409.498 63.167 410.453 61.415 A 85.331 85.331 0 0 1 412.575 57.75 Q 415.05 53.7 417.9 49.95 A 125.239 125.239 0 0 1 418.081 49.713 Q 419.433 47.943 420.717 46.393 A 77.163 77.163 0 0 1 423.3 43.425 A 29.351 29.351 0 0 1 424.273 42.413 Q 425.509 41.191 426.501 40.56 A 5.197 5.197 0 0 1 427.5 40.05 A 1.027 1.027 0 0 0 427.271 39.43 Q 426.977 39.039 426.309 38.664 A 7.853 7.853 0 0 0 425.625 38.325 Q 423.75 37.5 421.725 36.9 A 38.843 38.843 0 0 0 421.429 36.814 Q 419.644 36.3 418.95 36.3 A 6.22 6.22 0 0 0 418.367 36.327 A 4.769 4.769 0 0 0 414.9 38.25 A 50.115 50.115 0 0 0 414.484 38.799 A 44.936 44.936 0 0 0 412.2 42.15 Q 410.85 44.1 408.675 47.925 A 156.059 156.059 0 0 0 407.033 50.889 A 191.014 191.014 0 0 0 404.25 56.25 Q 402 60.75 400.5 64.65 Q 399.463 67.347 399.143 69.255 A 9.418 9.418 0 0 0 399 70.8 A 7.731 7.731 0 0 0 399.066 71.827 A 5.421 5.421 0 0 0 400.875 75.3 A 6.374 6.374 0 0 0 403.369 76.657 Z M 426.093 30.901 A 3.256 3.256 0 0 0 427.5 31.2 A 4.963 4.963 0 0 0 428.843 31.017 Q 430.634 30.516 432.225 28.65 Q 434.4 26.1 434.4 23.7 A 4.741 4.741 0 0 0 434.335 22.898 A 3.435 3.435 0 0 0 433.575 21.225 A 2.633 2.633 0 0 0 432.231 20.374 A 3.692 3.692 0 0 0 431.25 20.25 A 5.528 5.528 0 0 0 430.253 20.341 Q 428.242 20.709 426.375 22.575 Q 425.431 23.52 424.87 24.502 A 5.874 5.874 0 0 0 424.05 27.45 Q 424.05 28.95 425.025 30.075 A 3.24 3.24 0 0 0 426.093 30.901 Z" id="9" vector-effect="non-scaling-stroke"/>
		<path d="M 441.15 39 L 435.3 39 L 436.2 37.5 L 442.05 37.5 Q 444.15 34.05 446.175 30.6 Q 448.2 27.15 450.6 23.85 Q 451.95 21.9 453.525 20.175 A 5.217 5.217 0 0 1 457.161 18.467 A 7.138 7.138 0 0 1 457.65 18.45 A 4.906 4.906 0 0 1 458.175 18.483 Q 459.055 18.579 460.581 18.958 A 42.383 42.383 0 0 1 460.65 18.975 A 31.244 31.244 0 0 1 464.123 20.055 A 28.238 28.238 0 0 1 464.625 20.25 A 8.06 8.06 0 0 1 465.363 20.586 Q 466.075 20.958 466.397 21.364 A 1.175 1.175 0 0 1 466.65 21.9 A 7.592 7.592 0 0 0 465.106 22.64 Q 463.677 23.513 462.023 25.164 A 30.089 30.089 0 0 0 461.475 25.725 Q 458.55 28.8 456 32.175 Q 454.048 34.759 452.799 36.508 A 83.249 83.249 0 0 0 452.1 37.5 L 459 37.5 L 458.1 39 L 451.05 39 A 61.679 61.679 0 0 0 450.211 40.121 Q 448.852 41.973 446.731 45.071 A 387.612 387.612 0 0 0 446.625 45.225 A 302.602 302.602 0 0 0 443.644 49.669 A 364.753 364.753 0 0 0 440.55 54.45 Q 437.4 59.4 435.225 63.675 A 35.954 35.954 0 0 0 434.274 65.686 Q 433.05 68.513 433.05 70.2 A 3.89 3.89 0 0 0 433.231 71.44 Q 433.822 73.2 436.35 73.2 Q 438.6 73.2 441.6 70.95 Q 444.6 68.7 447.75 65.4 Q 450.9 62.1 453.75 58.725 A 901.327 901.327 0 0 1 455.119 57.108 Q 457.056 54.825 458.504 53.154 A 323.185 323.185 0 0 1 458.55 53.1 A 65.233 65.233 0 0 1 459.012 52.573 Q 460.519 50.871 460.793 50.851 A 0.087 0.087 0 0 1 460.8 50.85 A 0.473 0.473 0 0 1 461.007 50.893 Q 461.207 50.989 461.242 51.304 A 1.312 1.312 0 0 1 461.25 51.45 Q 461.25 51.592 460.107 53.012 A 80.587 80.587 0 0 1 459.975 53.175 Q 458.7 54.75 457.35 56.25 A 192.437 192.437 0 0 1 456.803 56.856 Q 456.113 57.616 455.745 58 A 13.056 13.056 0 0 1 455.55 58.2 Q 453.6 60.45 450.975 63.6 A 81.567 81.567 0 0 1 446.028 69.007 A 90.855 90.855 0 0 1 445.2 69.825 Q 442.05 72.9 438.75 74.925 A 15.123 15.123 0 0 1 435.992 76.274 A 10.806 10.806 0 0 1 432.3 76.95 A 7.785 7.785 0 0 1 429.269 76.369 A 7.393 7.393 0 0 1 427.575 75.375 A 5.126 5.126 0 0 1 425.582 71.643 A 7.394 7.394 0 0 1 425.55 70.95 Q 425.55 68.4 427.425 64.05 A 115.299 115.299 0 0 1 429.772 58.967 A 148.182 148.182 0 0 1 431.925 54.75 A 195.506 195.506 0 0 1 435.177 48.856 A 160.391 160.391 0 0 1 437.1 45.6 Q 439.052 42.385 440.389 40.224 A 322.338 322.338 0 0 1 441.15 39 Z" id="10" vector-effect="non-scaling-stroke"/>
		<path d="M 450.75 76.35 L 449.55 76.35 A 10.543 10.543 0 0 1 449.746 74.98 Q 450.036 73.546 450.728 71.509 A 62.364 62.364 0 0 1 451.5 69.375 Q 452.878 65.758 454.96 61.261 A 201.665 201.665 0 0 1 456.3 58.425 A 380.79 380.79 0 0 1 461.095 48.835 A 434.318 434.318 0 0 1 462.825 45.525 Q 466.35 38.85 469.875 32.55 A 2170.934 2170.934 0 0 1 472.816 27.311 Q 474.165 24.916 475.38 22.775 A 1257.148 1257.148 0 0 1 476.175 21.375 Q 478.9 16.589 480.395 14.333 A 38.078 38.078 0 0 1 480.45 14.25 Q 481.95 12 483.45 9.825 A 4.864 4.864 0 0 1 486.714 7.77 A 7.639 7.639 0 0 1 488.1 7.65 A 5.631 5.631 0 0 1 488.743 7.693 Q 489.748 7.81 491.4 8.25 A 36.122 36.122 0 0 1 495.165 9.473 A 32.958 32.958 0 0 1 495.675 9.675 Q 497.7 10.5 498 11.4 Q 495.15 12.45 491.025 17.175 Q 486.9 21.9 482.175 28.575 Q 477.45 35.25 473.025 42.375 Q 468.6 49.5 465.15 55.425 Q 462.509 59.962 461.01 62.871 A 58.914 58.914 0 0 0 460.2 64.5 Q 460.2 64.601 460.167 64.667 A 0.222 0.222 0 0 1 460.125 64.725 A 0.235 0.235 0 0 0 460.069 64.819 Q 460.057 64.856 460.052 64.901 A 0.528 0.528 0 0 0 460.05 64.95 A 0.45 0.45 0 0 0 460.053 65 Q 460.064 65.1 460.125 65.1 L 460.2 65.1 A 0.167 0.167 0 0 0 460.283 65.073 Q 460.396 65.006 460.563 64.776 A 3.844 3.844 0 0 0 460.65 64.65 Q 460.94 64.216 461.09 64.061 A 0.916 0.916 0 0 1 461.1 64.05 Q 462.823 61.983 465.381 58.685 A 432.651 432.651 0 0 0 467.025 56.55 A 181.241 181.241 0 0 1 472.917 49.266 A 206.182 206.182 0 0 1 475.05 46.8 A 72.321 72.321 0 0 1 479.959 41.714 A 56.786 56.786 0 0 1 483.825 38.4 Q 488.25 34.95 492 34.95 A 7.212 7.212 0 0 1 494.198 35.306 A 9.211 9.211 0 0 1 495.375 35.775 Q 497.1 36.6 497.1 38.4 A 3.184 3.184 0 0 1 496.877 39.539 Q 496.714 39.966 496.432 40.411 A 6.936 6.936 0 0 1 496.05 40.95 A 23.134 23.134 0 0 1 494.799 42.75 A 26.457 26.457 0 0 1 494.325 43.35 Q 493.35 44.55 492.45 45.75 Q 488.85 50.55 485.625 55.725 Q 482.4 60.9 480.15 66.6 A 42.34 42.34 0 0 1 479.663 67.978 A 48.874 48.874 0 0 1 479.475 68.475 Q 479.1 69.45 479.1 70.5 Q 479.1 72.643 480.8 73.085 A 3.978 3.978 0 0 0 481.8 73.2 A 5.583 5.583 0 0 0 483.582 72.884 Q 485.147 72.357 486.975 70.95 A 49.855 49.855 0 0 0 489.927 68.481 Q 491.487 67.076 493.125 65.4 Q 496.35 62.1 499.125 58.725 A 410.461 410.461 0 0 1 501.09 56.352 Q 501.861 55.43 502.551 54.617 A 193.001 193.001 0 0 1 503.85 53.1 A 40.405 40.405 0 0 1 504.502 52.364 Q 505.735 51.01 506.161 50.867 A 0.284 0.284 0 0 1 506.25 50.85 A 0.473 0.473 0 0 1 506.457 50.893 Q 506.657 50.989 506.692 51.304 A 1.312 1.312 0 0 1 506.7 51.45 A 0.463 0.463 0 0 1 506.627 51.633 Q 506.317 52.184 504.681 54.105 A 113.649 113.649 0 0 1 504.45 54.375 Q 502.903 56.18 500.966 58.375 A 565.41 565.41 0 0 1 499.125 60.45 Q 496.05 63.9 493.425 66.675 Q 490.8 69.45 490.05 70.2 A 35.058 35.058 0 0 1 486.728 73.113 A 43.114 43.114 0 0 1 484.425 74.775 A 13.185 13.185 0 0 1 481.17 76.398 A 10.893 10.893 0 0 1 477.75 76.95 Q 475.05 76.95 472.95 75.375 A 5.076 5.076 0 0 1 470.884 71.653 A 7.123 7.123 0 0 1 470.85 70.95 Q 470.85 68.7 472.575 64.5 A 96.025 96.025 0 0 1 474.753 59.609 A 122.185 122.185 0 0 1 476.775 55.575 A 240.118 240.118 0 0 1 480.143 49.362 A 202.978 202.978 0 0 1 481.65 46.725 A 1081.832 1081.832 0 0 1 482.784 44.78 Q 484.388 42.038 485.4 40.35 Q 482.1 41.85 478.125 45.6 A 88.269 88.269 0 0 0 472.695 51.218 A 104.838 104.838 0 0 0 470.25 54.075 A 165.172 165.172 0 0 0 464.096 61.995 A 148.301 148.301 0 0 0 463.05 63.45 Q 459.914 67.869 457.998 70.933 A 79.736 79.736 0 0 0 457.8 71.25 A 13.283 13.283 0 0 1 455.052 74.751 A 14.91 14.91 0 0 1 455.025 74.775 A 5.98 5.98 0 0 1 451.298 76.332 A 7.842 7.842 0 0 1 450.75 76.35 Z" id="11" vector-effect="non-scaling-stroke"/>
		<path d="M 501.714 76.491 A 6.278 6.278 0 0 0 504.15 76.95 A 8.126 8.126 0 0 0 507.094 76.4 A 9.914 9.914 0 0 0 509.55 75 Q 512.1 73.05 514.2 70.425 Q 515.513 68.785 516.532 67.349 A 43.232 43.232 0 0 0 517.65 65.7 Q 516.75 67.95 516.75 70.5 A 9.55 9.55 0 0 0 517.003 72.795 Q 517.997 76.8 522.9 76.8 A 12.913 12.913 0 0 0 528.357 75.547 A 18.601 18.601 0 0 0 531.825 73.425 Q 536.25 70.05 540.15 65.7 Q 544.05 61.35 546.75 58.2 A 3.417 3.417 0 0 1 546.915 57.978 Q 547.237 57.574 547.98 56.776 A 74.489 74.489 0 0 1 548.475 56.25 Q 549.9 54.75 551.175 53.175 A 80.587 80.587 0 0 0 551.307 53.012 Q 552.45 51.592 552.45 51.45 Q 552.45 50.984 552.088 50.88 A 0.864 0.864 0 0 0 551.85 50.85 A 0.087 0.087 0 0 0 551.843 50.851 Q 551.569 50.871 550.062 52.573 A 65.233 65.233 0 0 0 549.6 53.1 A 323.185 323.185 0 0 0 549.554 53.154 Q 547.616 55.391 544.8 58.725 Q 541.95 62.1 538.8 65.4 Q 535.65 68.7 532.65 70.95 Q 529.65 73.2 527.4 73.2 A 3.978 3.978 0 0 1 526.4 73.085 Q 524.7 72.643 524.7 70.5 Q 524.7 69.45 525 68.475 Q 525.3 67.5 525.6 66.6 Q 528.15 60.6 531.675 55.05 Q 535.2 49.5 538.95 44.4 L 541.35 41.4 Q 542.55 39.9 543.6 38.4 Q 543.717 38.4 543.743 38.31 A 0.216 0.216 0 0 0 543.75 38.25 A 0.464 0.464 0 0 0 543.642 37.968 Q 543.377 37.621 542.457 37.273 A 11.123 11.123 0 0 0 541.8 37.05 A 41.003 41.003 0 0 0 540.811 36.76 A 46.565 46.565 0 0 0 537.675 36 A 78.547 78.547 0 0 0 537.544 35.974 Q 535.881 35.632 535.18 35.566 A 3.081 3.081 0 0 0 534.9 35.55 A 2.887 2.887 0 0 0 534.611 35.564 Q 534.333 35.592 534.174 35.68 A 0.405 0.405 0 0 0 534 35.85 Q 532.988 37.313 531.342 40.083 A 208.158 208.158 0 0 0 530.175 42.075 A 7624.668 7624.668 0 0 0 530.096 42.211 Q 528.874 44.323 527.507 46.688 A 11863.463 11863.463 0 0 0 524.625 51.675 A 259.444 259.444 0 0 1 524.24 52.339 A 237.923 237.923 0 0 1 518.4 61.875 A 82.979 82.979 0 0 1 517.517 63.214 Q 514.828 67.204 512.25 69.975 A 20.344 20.344 0 0 1 511.384 70.854 Q 508.919 73.2 507 73.2 A 3.757 3.757 0 0 1 506.056 73.092 Q 504.901 72.791 504.576 71.66 A 3.671 3.671 0 0 1 504.45 70.65 Q 504.45 69.6 504.825 68.55 Q 505.2 67.5 505.5 66.6 Q 508.5 59.4 512.55 53.1 Q 516.6 46.8 521.1 40.5 A 14.838 14.838 0 0 0 521.288 40.212 A 17.558 17.558 0 0 0 521.7 39.525 Q 522 39 522 38.4 Q 522 36.938 520.734 36.193 A 4.463 4.463 0 0 0 519.75 35.775 Q 518.274 35.332 517.12 35.18 A 8.596 8.596 0 0 0 516 35.1 A 10.934 10.934 0 0 0 513.285 35.459 A 15.111 15.111 0 0 0 510.9 36.3 A 0.576 0.576 0 0 1 511.251 36.629 Q 511.304 36.746 511.329 36.901 A 1.913 1.913 0 0 1 511.35 37.2 A 2.703 2.703 0 0 1 511.332 37.5 Q 511.202 38.667 510.114 40.826 A 36.722 36.722 0 0 1 509.325 42.3 Q 507.3 45.9 504.525 50.55 Q 501.75 55.2 499.725 60.225 A 30.379 30.379 0 0 0 498.531 63.789 A 23.786 23.786 0 0 0 497.7 69.9 Q 497.7 72.75 499.5 74.85 A 5.874 5.874 0 0 0 501.714 76.491 Z" id="12" vector-effect="non-scaling-stroke"/>
		<path d="M 550.486 77.053 A 6.98 6.98 0 0 0 551.25 77.1 Q 551.55 77.1 551.85 77.025 Q 552.15 76.95 552.45 76.8 Q 559.95 73.8 566.925 68.925 Q 573.9 64.05 579.6 57.675 A 61.064 61.064 0 0 0 581.156 55.866 A 53.366 53.366 0 0 0 588.6 44.1 A 20.01 20.01 0 0 0 589.018 43.211 A 16.615 16.615 0 0 0 589.575 41.775 Q 589.95 40.65 589.95 39.45 A 3.219 3.219 0 0 0 589.726 38.298 Q 589.356 37.328 588.375 36.3 Q 586.8 34.65 584.85 33.525 Q 583.685 32.853 582.68 32.583 A 4.929 4.929 0 0 0 581.4 32.4 Q 580.163 32.4 578.377 33.497 A 17.262 17.262 0 0 0 577.125 34.35 A 114.794 114.794 0 0 0 575.965 35.223 Q 574.184 36.582 573.15 37.5 Q 568.65 41.25 564.825 45.675 Q 561 50.1 557.55 54.9 Q 567.45 37.95 579.15 22.05 Q 581.25 19.35 583.2 16.65 Q 585.15 13.95 587.25 11.55 A 5.61 5.61 0 0 1 587.439 11.37 Q 587.529 11.287 587.612 11.221 A 2.297 2.297 0 0 1 587.775 11.1 A 0.478 0.478 0 0 0 587.973 10.839 A 0.632 0.632 0 0 0 588 10.65 A 0.608 0.608 0 0 0 587.949 10.409 Q 587.743 9.929 586.713 9.481 A 9.28 9.28 0 0 0 586.05 9.225 Q 584.1 8.55 582 8.175 A 82.64 82.64 0 0 0 581.971 8.17 Q 580.353 7.882 579.634 7.818 A 3.937 3.937 0 0 0 579.3 7.8 A 0.811 0.811 0 0 1 579.23 7.797 Q 579.132 7.789 578.991 7.758 A 4.277 4.277 0 0 1 578.85 7.725 Q 578.617 7.667 578.475 7.835 A 0.573 0.573 0 0 0 578.4 7.95 Q 576.6 10.05 573.15 14.85 Q 571.209 17.55 569.055 20.772 A 313.519 313.519 0 0 0 565.575 26.1 Q 561.45 32.55 557.25 39.525 A 311.024 311.024 0 0 0 555.072 43.199 A 268.715 268.715 0 0 0 549.6 53.025 A 233.016 233.016 0 0 0 548.053 56.002 Q 546.822 58.413 545.786 60.596 A 125.903 125.903 0 0 0 543.975 64.575 Q 542.378 68.266 541.954 70.54 A 8.068 8.068 0 0 0 541.8 72 Q 541.8 73.102 542.771 74.042 A 5.87 5.87 0 0 0 543.6 74.7 A 12.23 12.23 0 0 0 544.931 75.47 A 14.201 14.201 0 0 0 547.725 76.5 A 32.132 32.132 0 0 0 548.713 76.74 Q 549.737 76.97 550.486 77.053 Z M 551.1 71.4 Q 551.4 71.4 551.85 71.25 Q 552.195 71.136 552.451 71.021 A 3.849 3.849 0 0 0 552.6 70.95 Q 562.2 65.85 569.925 57.75 Q 577.65 49.65 582.3 40.05 A 9.665 9.665 0 0 0 582.797 38.859 A 10.613 10.613 0 0 0 582.825 38.775 A 4.593 4.593 0 0 0 582.997 38.099 A 3.546 3.546 0 0 0 583.05 37.5 A 1.512 1.512 0 0 0 582.998 37.085 Q 582.865 36.619 582.389 36.495 A 1.547 1.547 0 0 0 582 36.45 A 6.471 6.471 0 0 0 580.22 36.727 Q 578.546 37.209 576.43 38.528 A 29.024 29.024 0 0 0 575.475 39.15 A 53.287 53.287 0 0 0 571.536 42.118 Q 569.661 43.664 567.709 45.515 A 87.466 87.466 0 0 0 567.15 46.05 Q 562.8 50.25 558.9 54.975 Q 555.411 59.202 553.123 62.949 A 47.756 47.756 0 0 0 552.6 63.825 A 29.885 29.885 0 0 0 551.494 65.895 Q 550.509 67.946 550.274 69.458 A 5.825 5.825 0 0 0 550.2 70.35 A 1.784 1.784 0 0 0 550.24 70.745 Q 550.364 71.292 550.879 71.382 A 1.273 1.273 0 0 0 551.1 71.4 Z" id="13" vector-effect="non-scaling-stroke"/>
	</g>
</svg>
